<svg width="32" height="32" viewBox="0 0 32 32" fill="none" xmlns="http://www.w3.org/2000/svg">
  <path d="M15.9999 4.14152L15.3226 4.87752C15.5071 5.04712 15.7486 5.14123 15.9993 5.14123C16.2499 5.14123 16.4914 5.04712 16.6759 4.87752L15.9999 4.14152ZM14.1226 10.9282C13.2026 10.2575 12.2199 9.44152 11.4786 8.58152C10.7133 7.69485 10.3333 6.90952 10.3333 6.28685H8.33325C8.33325 7.64285 9.10392 8.89219 9.96392 9.88819C10.8479 10.9122 11.9653 11.8309 12.9439 12.5442L14.1226 10.9282ZM10.3333 6.28685C10.3333 4.87485 11.0266 4.06952 11.8613 3.78952C12.7306 3.49619 14.0266 3.68552 15.3226 4.87752L16.6759 3.40552C14.9733 1.84019 12.9386 1.31752 11.2239 1.89352C9.47325 2.48285 8.33325 4.12819 8.33325 6.28685H10.3333ZM19.0559 12.5442C20.0346 11.8322 21.1519 10.9122 22.0359 9.88819C22.8959 8.89219 23.6666 7.64285 23.6666 6.28685H21.6666C21.6666 6.90952 21.2879 7.69485 20.5213 8.58152C19.7799 9.44152 18.7986 10.2575 17.8786 10.9282L19.0559 12.5442ZM23.6666 6.28685C23.6666 4.12819 22.5266 2.48285 20.7773 1.89352C19.0626 1.31752 17.0266 1.84019 15.3239 3.40552L16.6773 4.87752C17.9733 3.68552 19.2706 3.49619 20.1399 3.78952C20.9733 4.06952 21.6666 4.87485 21.6666 6.28685H23.6666ZM12.9439 12.5442C13.9506 13.2775 14.7493 13.9015 15.9999 13.9015V11.9015C15.5133 11.9015 15.2466 11.7482 14.1226 10.9282L12.9439 12.5442ZM17.8773 10.9282C16.7533 11.7482 16.4866 11.9015 15.9999 11.9015V13.9015C17.2506 13.9015 18.0493 13.2789 19.0559 12.5442L17.8773 10.9282Z" fill="#1976D2" />
  <path d="M6.66663 27.1841H9.67996C11.0266 27.1841 12.3906 27.3254 13.7013 27.5948C16.0415 28.074 18.4489 28.1273 20.808 27.7521C21.9653 27.5654 23.1013 27.2788 24.1306 26.7828C25.0586 26.3334 26.196 25.7028 26.96 24.9948C27.7226 24.2881 28.5173 23.1321 29.08 22.2281C29.5653 21.4521 29.3306 20.5014 28.5653 19.9241C28.135 19.6119 27.6169 19.4437 27.0853 19.4437C26.5536 19.4437 26.0356 19.6119 25.6053 19.9241L23.196 21.7441C22.2626 22.4508 21.2426 23.1001 20.028 23.2934C19.8813 23.3166 19.728 23.3374 19.568 23.3561M19.568 23.3561L19.4213 23.3721M19.568 23.3561C19.7813 23.2983 19.977 23.1883 20.1373 23.0361C20.3385 22.8625 20.5029 22.6503 20.6206 22.412C20.7384 22.1737 20.8071 21.9143 20.8228 21.649C20.8384 21.3836 20.8007 21.1179 20.7118 20.8674C20.6229 20.617 20.4847 20.3869 20.3053 20.1908C20.1315 19.9979 19.9292 19.8329 19.7053 19.7014C15.976 17.4761 10.172 19.1708 6.66663 21.6574M19.568 23.3561C19.5198 23.3669 19.4706 23.3722 19.4213 23.3721M19.4213 23.3721C18.6172 23.4527 17.8071 23.4545 17.0026 23.3774" stroke="#1976D2" stroke-width="2" stroke-linecap="round" />
  <path d="M6.66663 20.667C6.66663 19.5624 5.7712 18.667 4.66663 18.667C3.56206 18.667 2.66663 19.5624 2.66663 20.667V27.3337C2.66663 28.4382 3.56206 29.3337 4.66663 29.3337C5.7712 29.3337 6.66663 28.4382 6.66663 27.3337V20.667Z" stroke="#1976D2" stroke-width="2" />
</svg>