<svg width="32" height="32" viewBox="0 0 32 32" fill="none" xmlns="http://www.w3.org/2000/svg">
  <path d="M2.66663 16.0002C2.66663 10.9722 2.66663 8.4575 4.22929 6.89616C5.79196 5.33483 8.30529 5.3335 13.3333 5.3335H18.6666C23.6946 5.3335 26.2093 5.3335 27.7706 6.89616C29.332 8.45883 29.3333 10.9722 29.3333 16.0002V18.6668C29.3333 23.6948 29.3333 26.2095 27.7706 27.7708C26.208 29.3322 23.6946 29.3335 18.6666 29.3335H13.3333C8.30529 29.3335 5.79063 29.3335 4.22929 27.7708C2.66796 26.2082 2.66663 23.6948 2.66663 18.6668V16.0002Z" stroke="#1976D2" stroke-width="2" />
  <path d="M9.33325 5.3335V3.3335M22.6666 5.3335V3.3335M3.33325 12.0002H28.6666" stroke="#1976D2" stroke-width="2" stroke-linecap="round" />
  <path d="M24 22.6667C24 23.0203 23.8595 23.3594 23.6095 23.6095C23.3594 23.8595 23.0203 24 22.6667 24C22.313 24 21.9739 23.8595 21.7239 23.6095C21.4738 23.3594 21.3333 23.0203 21.3333 22.6667C21.3333 22.313 21.4738 21.9739 21.7239 21.7239C21.9739 21.4738 22.313 21.3333 22.6667 21.3333C23.0203 21.3333 23.3594 21.4738 23.6095 21.7239C23.8595 21.9739 24 22.313 24 22.6667ZM24 17.3333C24 17.687 23.8595 18.0261 23.6095 18.2761C23.3594 18.5262 23.0203 18.6667 22.6667 18.6667C22.313 18.6667 21.9739 18.5262 21.7239 18.2761C21.4738 18.0261 21.3333 17.687 21.3333 17.3333C21.3333 16.9797 21.4738 16.6406 21.7239 16.3905C21.9739 16.1405 22.313 16 22.6667 16C23.0203 16 23.3594 16.1405 23.6095 16.3905C23.8595 16.6406 24 16.9797 24 17.3333ZM17.3333 22.6667C17.3333 23.0203 17.1929 23.3594 16.9428 23.6095C16.6928 23.8595 16.3536 24 16 24C15.6464 24 15.3072 23.8595 15.0572 23.6095C14.8071 23.3594 14.6667 23.0203 14.6667 22.6667C14.6667 22.313 14.8071 21.9739 15.0572 21.7239C15.3072 21.4738 15.6464 21.3333 16 21.3333C16.3536 21.3333 16.6928 21.4738 16.9428 21.7239C17.1929 21.9739 17.3333 22.313 17.3333 22.6667ZM17.3333 17.3333C17.3333 17.687 17.1929 18.0261 16.9428 18.2761C16.6928 18.5262 16.3536 18.6667 16 18.6667C15.6464 18.6667 15.3072 18.5262 15.0572 18.2761C14.8071 18.0261 14.6667 17.687 14.6667 17.3333C14.6667 16.9797 14.8071 16.6406 15.0572 16.3905C15.3072 16.1405 15.6464 16 16 16C16.3536 16 16.6928 16.1405 16.9428 16.3905C17.1929 16.6406 17.3333 16.9797 17.3333 17.3333ZM10.6667 22.6667C10.6667 23.0203 10.5262 23.3594 10.2761 23.6095C10.0261 23.8595 9.68696 24 9.33333 24C8.97971 24 8.64057 23.8595 8.39052 23.6095C8.14048 23.3594 8 23.0203 8 22.6667C8 22.313 8.14048 21.9739 8.39052 21.7239C8.64057 21.4738 8.97971 21.3333 9.33333 21.3333C9.68696 21.3333 10.0261 21.4738 10.2761 21.7239C10.5262 21.9739 10.6667 22.313 10.6667 22.6667ZM10.6667 17.3333C10.6667 17.687 10.5262 18.0261 10.2761 18.2761C10.0261 18.5262 9.68696 18.6667 9.33333 18.6667C8.97971 18.6667 8.64057 18.5262 8.39052 18.2761C8.14048 18.0261 8 17.687 8 17.3333C8 16.9797 8.14048 16.6406 8.39052 16.3905C8.64057 16.1405 8.97971 16 9.33333 16C9.68696 16 10.0261 16.1405 10.2761 16.3905C10.5262 16.6406 10.6667 16.9797 10.6667 17.3333Z" fill="#1976D2" />
</svg>