<svg width="32" height="32" viewBox="0 0 32 32" fill="none" xmlns="http://www.w3.org/2000/svg">
  <path d="M16 5.99993C14.3623 5.99947 12.7496 6.40122 11.3036 7.16988C9.8575 7.93854 8.62234 9.05058 7.70662 10.4083C6.7909 11.766 6.22264 13.3278 6.05177 14.9566C5.8809 16.5853 6.11266 18.2311 6.72667 19.7493C6.75959 19.8304 6.7762 19.9173 6.77556 20.0048C6.77491 20.0924 6.75702 20.179 6.72291 20.2597C6.6888 20.3403 6.63914 20.4135 6.57676 20.475C6.51438 20.5364 6.4405 20.585 6.35934 20.6179C6.27818 20.6509 6.19134 20.6675 6.10376 20.6668C6.01618 20.6662 5.92959 20.6483 5.84893 20.6142C5.76827 20.5801 5.69511 20.5304 5.63364 20.468C5.57217 20.4056 5.52359 20.3318 5.49067 20.2506C4.51089 17.8274 4.39881 15.14 5.17342 12.6436C5.94803 10.1472 7.5617 7.99535 9.74112 6.55241C11.9205 5.10948 14.5317 4.46421 17.1324 4.72591C19.733 4.98761 22.1633 6.14019 24.0115 7.98842C25.8598 9.83665 27.0123 12.2669 27.274 14.8676C27.5357 17.4682 26.8905 20.0794 25.4475 22.2588C24.0046 24.4382 21.8527 26.0519 19.3563 26.8265C16.8599 27.6011 14.1726 27.489 11.7493 26.5093C11.5866 26.4421 11.457 26.3134 11.3889 26.1511C11.3207 25.9888 11.3195 25.8061 11.3855 25.643C11.4515 25.4798 11.5794 25.3493 11.7412 25.2801C11.9031 25.2108 12.0857 25.2084 12.2493 25.2733C13.6166 25.8251 15.089 26.0677 16.5611 25.9837C18.0331 25.8998 19.4684 25.4913 20.7641 24.7877C22.0598 24.084 23.1839 23.1025 24.0558 21.9135C24.9277 20.7245 25.5259 19.3574 25.8076 17.9101C26.0892 16.4628 26.0473 14.9712 25.6849 13.542C25.3225 12.1128 24.6485 10.7814 23.7113 9.64318C22.774 8.50498 21.5966 7.58812 20.2635 6.95827C18.9304 6.32841 17.4744 6.00116 16 5.99993Z" fill="#1976D2" />
  <path d="M8.66671 16.0002C8.66671 17.7855 9.30404 19.4215 10.364 20.6935L9.72404 21.3335H7.69338C7.16312 21.334 6.65476 21.545 6.28004 21.9202L4.09604 24.1029C3.95637 24.2427 3.86127 24.4208 3.82276 24.6147C3.78424 24.8085 3.80405 25.0095 3.87966 25.1921C3.95528 25.3747 4.08331 25.5308 4.2476 25.6407C4.41189 25.7506 4.60506 25.8094 4.80271 25.8095H6.18938V27.1962C6.18955 27.3938 6.24829 27.587 6.35819 27.7513C6.46808 27.9156 6.62419 28.0436 6.80681 28.1192C6.98943 28.1949 7.19036 28.2147 7.38422 28.1761C7.57809 28.1376 7.75619 28.0425 7.89604 27.9029L10.0787 25.7189C10.4541 25.3447 10.6655 24.8368 10.6667 24.3069V22.2775L11.3067 21.6375C12.5883 22.705 14.1954 23.3037 15.8631 23.3348C17.5307 23.366 19.1591 22.8277 20.4796 21.8089C21.8002 20.7901 22.734 19.3515 23.1269 17.7306C23.5199 16.1096 23.3486 14.4031 22.6412 12.8927C21.9338 11.3822 20.7327 10.158 19.236 9.42201C17.7392 8.68602 16.0363 8.48225 14.4082 8.84429C12.7801 9.20634 11.324 10.1126 10.2802 11.4135C9.23643 12.7144 8.6673 14.3323 8.66671 16.0002ZM16 10.0002C16.9584 10.0005 17.9027 10.2304 18.754 10.6706C19.6053 11.1108 20.3388 11.7485 20.893 12.5304C21.4472 13.3122 21.8061 14.2154 21.9396 15.1645C22.0731 16.1135 21.9773 17.0807 21.6602 17.9851C21.3432 18.8895 20.8141 19.7048 20.1173 20.3627C19.4205 21.0207 18.5762 21.5021 17.6551 21.7668C16.7341 22.0315 15.763 22.0717 14.8232 21.884C13.8834 21.6964 13.0022 21.2863 12.2534 20.6882L14.644 18.2975C15.2031 18.6272 15.8633 18.7416 16.5007 18.6194C17.1382 18.4971 17.7091 18.1466 18.1066 17.6335C18.5041 17.1203 18.7008 16.4799 18.6598 15.8321C18.6189 15.1844 18.343 14.5738 17.8841 14.1148C17.4251 13.6559 16.8146 13.38 16.1668 13.3391C15.519 13.2981 14.8786 13.4948 14.3654 13.8923C13.8523 14.2898 13.5018 14.8607 13.3795 15.4982C13.2573 16.1356 13.3717 16.7958 13.7014 17.3549L11.312 19.7455C10.6067 18.8628 10.165 17.7988 10.0377 16.676C9.91043 15.5533 10.1028 14.4174 10.5926 13.3992C11.0824 12.3809 11.8498 11.5217 12.8065 10.9204C13.7631 10.3191 14.8701 10.0001 16 10.0002ZM7.22271 22.8615C7.28474 22.7997 7.35835 22.7506 7.43934 22.7172C7.52033 22.6838 7.6071 22.6667 7.69471 22.6669H9.33338V24.3055C9.33299 24.4822 9.26249 24.6515 9.13738 24.7762L7.52404 26.3895V25.1429C7.52404 24.966 7.45381 24.7965 7.32878 24.6715C7.20376 24.5464 7.03419 24.4762 6.85738 24.4762H5.60938L7.22271 22.8615Z" fill="#1976D2" />
</svg>