<svg width="30" height="30" viewBox="0 0 30 30" fill="none" xmlns="http://www.w3.org/2000/svg">
  <path d="M15 5.62507C14.6122 5.62504 14.2338 5.7453 13.9171 5.96929C13.6005 6.19327 13.3611 6.50995 13.2319 6.87569C13.1431 7.10221 12.9697 7.28534 12.7484 7.38637C12.527 7.48741 12.2751 7.49844 12.0458 7.41713C11.8165 7.33582 11.6277 7.16855 11.5195 6.95065C11.4112 6.73275 11.3919 6.48131 11.4657 6.24944C11.6564 5.71075 11.9677 5.22278 12.3758 4.82279C12.7839 4.42279 13.2781 4.12137 13.8205 3.94152C14.3629 3.76168 14.9392 3.70818 15.5055 3.78511C16.0717 3.86205 16.6129 4.06737 17.0877 4.38541C17.5625 4.70345 17.9583 5.12579 18.2449 5.62017C18.5315 6.11455 18.7013 6.66789 18.7414 7.23793C18.7815 7.80798 18.6908 8.37964 18.4762 8.90927C18.2616 9.43889 17.9287 9.91246 17.5032 10.2938L17.4263 10.3632C17.0138 10.7326 16.6407 11.0644 16.3575 11.4244C16.0575 11.7957 15.9394 12.0976 15.9394 12.3676C15.9394 12.7782 16.1644 13.1551 16.5263 13.3501L26.55 18.7501C27.1356 19.0666 27.5989 19.5693 27.8667 20.1787C28.1344 20.7881 28.1914 21.4693 28.0286 22.1147C27.8657 22.7601 27.4923 23.3328 26.9675 23.7422C26.4426 24.1515 25.7963 24.3743 25.1307 24.3751H4.86566C4.1995 24.3751 3.55241 24.1527 3.02702 23.7431C2.50163 23.3336 2.12802 22.7603 1.96544 22.1143C1.80286 21.4683 1.86062 20.7865 2.12956 20.1771C2.3985 19.5676 2.86323 19.0654 3.45003 18.7501L11.7432 14.2876C11.9611 14.1786 12.213 14.1587 12.4453 14.2323C12.6777 14.3058 12.8723 14.4669 12.9878 14.6815C13.1034 14.8961 13.1309 15.1472 13.0644 15.3817C12.998 15.6161 12.8429 15.8155 12.6319 15.9376L4.33691 20.4001C4.11709 20.5173 3.94284 20.7047 3.84191 20.9325C3.74099 21.1603 3.71921 21.4153 3.78004 21.6568C3.84086 21.8984 3.9808 22.1127 4.17755 22.2655C4.3743 22.4183 4.61653 22.5009 4.86566 22.5001H25.1344C25.3827 22.4992 25.6236 22.4158 25.8192 22.2628C26.0147 22.1099 26.1538 21.8962 26.2144 21.6554C26.275 21.4147 26.2537 21.1606 26.1539 20.9333C26.0541 20.706 25.8814 20.5184 25.6632 20.4001L15.6375 15.0001C15.1624 14.7436 14.7653 14.3637 14.4881 13.9004C14.2109 13.437 14.0639 12.9075 14.0625 12.3676C14.0625 11.5013 14.46 10.7944 14.8875 10.2563C15.2775 9.76694 15.765 9.33194 16.1513 8.98694L16.2525 8.89694C16.5355 8.64359 16.7348 8.31029 16.8242 7.94114C16.9135 7.572 16.8887 7.18443 16.7529 6.82974C16.6171 6.47504 16.3768 6.16994 16.0638 5.95482C15.7508 5.7397 15.3798 5.62471 15 5.62507Z" fill="#1976D2" />
</svg>