<svg width="30" height="30" viewBox="0 0 30 30" fill="none" xmlns="http://www.w3.org/2000/svg">
  <path d="M15 3.75C14.6307 3.75 14.2649 3.82275 13.9237 3.96409C13.5825 4.10543 13.2724 4.3126 13.0113 4.57376C12.7501 4.83493 12.5429 5.14497 12.4016 5.4862C12.2602 5.82743 12.1875 6.19316 12.1875 6.5625C12.1875 6.93184 12.2602 7.29757 12.4016 7.6388C12.5429 7.98003 12.7501 8.29007 13.0113 8.55124C13.2724 8.8124 13.5825 9.01957 13.9237 9.16091C14.2649 9.30225 14.6307 9.375 15 9.375C15.7459 9.375 16.4613 9.07868 16.9887 8.55124C17.5162 8.02379 17.8125 7.30842 17.8125 6.5625C17.8125 5.81658 17.5162 5.10121 16.9887 4.57376C16.4613 4.04632 15.7459 3.75 15 3.75ZM10.3125 6.5625C10.3125 5.3193 10.8064 4.12701 11.6854 3.24794C12.5645 2.36886 13.7568 1.875 15 1.875C16.2432 1.875 17.4355 2.36886 18.3146 3.24794C19.1936 4.12701 19.6875 5.3193 19.6875 6.5625C19.6875 7.8057 19.1936 8.99799 18.3146 9.87706C17.4355 10.7561 16.2432 11.25 15 11.25C13.7568 11.25 12.5645 10.7561 11.6854 9.87706C10.8064 8.99799 10.3125 7.8057 10.3125 6.5625ZM7.5 15.9375C7.50125 15.595 7.53625 15.2638 7.605 14.9437L3.96 15.9187C3.60317 16.0145 3.2687 16.1795 2.97569 16.4046C2.68268 16.6296 2.43687 16.9101 2.2523 17.2301C2.06773 17.5502 1.94803 17.9034 1.90002 18.2697C1.85201 18.636 1.87664 19.0082 1.9725 19.365L2.7 22.0819C2.89559 22.8109 3.2359 23.4931 3.70066 24.0878C4.16541 24.6825 4.7451 25.1776 5.40521 25.5436C6.06531 25.9096 6.79233 26.1391 7.54295 26.2182C8.29357 26.2974 9.05245 26.2246 9.77437 26.0044C9.27291 25.518 8.84187 24.9638 8.49375 24.3581C7.61048 24.4434 6.72558 24.2127 5.99639 23.707C5.2672 23.2013 4.74097 22.4534 4.51125 21.5962L3.78187 18.8775C3.71776 18.6373 3.75167 18.3815 3.87614 18.1663C4.00061 17.9511 4.20546 17.7942 4.44563 17.73L7.5 16.9125V15.9375ZM20.4112 26.0588L20.2238 26.0063C20.7244 25.5187 21.1575 24.9656 21.5063 24.3581C22.3895 24.4434 23.2744 24.2127 24.0036 23.707C24.7328 23.2013 25.259 22.4534 25.4888 21.5962L26.2163 18.8775C26.2804 18.6376 26.2468 18.382 26.1227 18.1668C25.9986 17.9517 25.7942 17.7946 25.5544 17.73L22.5 16.9125V15.9375C22.4988 15.595 22.4638 15.2638 22.395 14.9437L26.0381 15.9187C26.3951 16.0143 26.7298 16.1792 27.023 16.4041C27.3162 16.629 27.5622 16.9096 27.747 17.2296C27.9318 17.5497 28.0516 17.903 28.0998 18.2694C28.1479 18.6358 28.1233 19.0081 28.0275 19.365L27.3 22.0819C26.9133 23.5223 25.9704 24.7503 24.6786 25.4957C23.3868 26.2411 21.8519 26.4448 20.4112 26.0588ZM3.75 9.375C3.75 8.87772 3.94754 8.40081 4.29917 8.04918C4.65081 7.69754 5.12772 7.5 5.625 7.5C6.12228 7.5 6.59919 7.69754 6.95083 8.04918C7.30246 8.40081 7.5 8.87772 7.5 9.375C7.5 9.87228 7.30246 10.3492 6.95083 10.7008C6.59919 11.0525 6.12228 11.25 5.625 11.25C5.12772 11.25 4.65081 11.0525 4.29917 10.7008C3.94754 10.3492 3.75 9.87228 3.75 9.375ZM5.625 5.625C4.63044 5.625 3.67661 6.02009 2.97335 6.72335C2.27009 7.42661 1.875 8.38044 1.875 9.375C1.875 10.3696 2.27009 11.3234 2.97335 12.0267C3.67661 12.7299 4.63044 13.125 5.625 13.125C6.61956 13.125 7.57339 12.7299 8.27665 12.0267C8.97991 11.3234 9.375 10.3696 9.375 9.375C9.375 8.38044 8.97991 7.42661 8.27665 6.72335C7.57339 6.02009 6.61956 5.625 5.625 5.625ZM24.375 7.5C23.8777 7.5 23.4008 7.69754 23.0492 8.04918C22.6975 8.40081 22.5 8.87772 22.5 9.375C22.5 9.87228 22.6975 10.3492 23.0492 10.7008C23.4008 11.0525 23.8777 11.25 24.375 11.25C24.8723 11.25 25.3492 11.0525 25.7008 10.7008C26.0525 10.3492 26.25 9.87228 26.25 9.375C26.25 8.87772 26.0525 8.40081 25.7008 8.04918C25.3492 7.69754 24.8723 7.5 24.375 7.5ZM20.625 9.375C20.625 8.38044 21.0201 7.42661 21.7234 6.72335C22.4266 6.02009 23.3804 5.625 24.375 5.625C25.3696 5.625 26.3234 6.02009 27.0266 6.72335C27.7299 7.42661 28.125 8.38044 28.125 9.375C28.125 10.3696 27.7299 11.3234 27.0266 12.0267C26.3234 12.7299 25.3696 13.125 24.375 13.125C23.3804 13.125 22.4266 12.7299 21.7234 12.0267C21.0201 11.3234 20.625 10.3696 20.625 9.375ZM12.1875 13.125C11.4416 13.125 10.7262 13.4213 10.1988 13.9488C9.67132 14.4762 9.375 15.1916 9.375 15.9375V20.625C9.375 22.1168 9.96763 23.5476 11.0225 24.6025C12.0774 25.6574 13.5082 26.25 15 26.25C16.4918 26.25 17.9226 25.6574 18.9775 24.6025C20.0324 23.5476 20.625 22.1168 20.625 20.625V15.9375C20.625 15.1916 20.3287 14.4762 19.8012 13.9488C19.2738 13.4213 18.5584 13.125 17.8125 13.125H12.1875ZM11.25 15.9375C11.25 15.6889 11.3488 15.4504 11.5246 15.2746C11.7004 15.0988 11.9389 15 12.1875 15H17.8125C18.0611 15 18.2996 15.0988 18.4754 15.2746C18.6512 15.4504 18.75 15.6889 18.75 15.9375V20.625C18.75 21.6196 18.3549 22.5734 17.6516 23.2766C16.9484 23.9799 15.9946 24.375 15 24.375C14.0054 24.375 13.0516 23.9799 12.3483 23.2766C11.6451 22.5734 11.25 21.6196 11.25 20.625V15.9375Z" fill="#1976D2" />
</svg>