<svg width="30" height="30" viewBox="0 0 30 30" fill="none" xmlns="http://www.w3.org/2000/svg">
  <g clip-path="url(#clip0_528_1545)">
    <path d="M7.5 14.5083V22.5H15.4917L13.825 20.8333H9.16667V16.175L7.5 14.5083Z" fill="#1976D2" />
    <path d="M29.0582 26.9082L26.6665 24.4832V26.6665H3.33318V23.2082H4.99985V21.8749H3.33318V16.3332H4.99985V14.9999H3.33318V9.66655H4.99985V8.33322H3.33318V3.67488L16.6165 16.8832V14.5332L3.09152 1.07488C2.97496 0.957358 2.82604 0.877207 2.66375 0.844649C2.50146 0.812091 2.33315 0.828601 2.18028 0.892073C2.02741 0.955545 1.89691 1.0631 1.80541 1.20104C1.71391 1.33897 1.66556 1.50103 1.66652 1.66655V27.4999C1.66652 27.7209 1.75432 27.9329 1.9106 28.0891C2.06688 28.2454 2.27884 28.3332 2.49985 28.3332H28.4665C28.632 28.3342 28.7941 28.2858 28.932 28.1943C29.07 28.1028 29.1775 27.9723 29.241 27.8195C29.3045 27.6666 29.321 27.4983 29.2884 27.336C29.2559 27.1737 29.1757 27.0248 29.0582 26.9082Z" fill="#1976D2" />
    <path d="M20.0002 25.0001H23.3335C23.7755 25.0001 24.1994 24.8245 24.512 24.5119C24.8246 24.1994 25.0002 23.7755 25.0002 23.3334V7.2501L23.0835 3.7251C22.9353 3.46828 22.7212 3.25566 22.4634 3.10917C22.2056 2.96269 21.9133 2.88764 21.6168 2.89176C21.3136 2.89417 21.0168 2.97925 20.7584 3.13784C20.4999 3.29643 20.2896 3.52252 20.1502 3.79176L18.3335 7.26676V23.3334C18.3335 23.7755 18.5091 24.1994 18.8217 24.5119C19.1342 24.8245 19.5581 25.0001 20.0002 25.0001ZM20.0002 7.66676L21.6168 4.5251L23.3335 7.6751V20.0001H20.0002V7.66676ZM20.0002 21.3584H23.3335V23.3918H20.0002V21.3584Z" fill="#1976D2" />
  </g>
  <defs>
    <clipPath id="clip0_528_1545">
      <rect width="30" height="30" fill="white" />
    </clipPath>
  </defs>
</svg>