<svg width="30" height="30" viewBox="0 0 30 30" fill="none" xmlns="http://www.w3.org/2000/svg">
  <path d="M25.4125 22.0712C25.55 21.6137 25.625 21.1275 25.625 20.625V9.375C25.625 8.04892 25.0982 6.77715 24.1605 5.83947C23.2229 4.90178 21.9511 4.375 20.625 4.375H9.375C8.04892 4.375 6.77715 4.90178 5.83947 5.83947C4.90178 6.77715 4.375 8.04892 4.375 9.375V20.7125C4.39794 22.0234 4.93484 23.2728 5.87005 24.1916C6.80525 25.1104 8.06394 25.6252 9.375 25.625H20.625L20.7713 25.6225M25.4125 22.0712L25.3025 21.9412L22.22 18.2212C21.9861 17.9391 21.693 17.7118 21.3615 17.5554C21.03 17.3991 20.6682 17.3176 20.3017 17.3166C19.9352 17.3157 19.573 17.3953 19.2407 17.5499C18.9084 17.7045 18.6141 17.9303 18.3788 18.2113L16.7387 20.1688L16.4713 20.495M25.4125 22.0712C25.1093 23.0754 24.4979 23.9575 23.665 24.595C22.8321 25.2326 21.8197 25.592 20.7713 25.6225M16.4713 20.495L20.655 25.49L20.7713 25.6225M16.4713 20.495L12.4375 15.6788C12.2029 15.3987 11.9097 15.1735 11.5786 15.019C11.2475 14.8644 10.8866 14.7844 10.5212 14.7844C10.1559 14.7844 9.79497 14.8644 9.4639 15.019C9.13283 15.1735 8.83965 15.3987 8.605 15.6788L4.5975 20.4625L4.37625 20.7137" stroke="#1976D2" stroke-width="1.875" stroke-linecap="round" stroke-linejoin="round" />
  <path d="M18.8638 13.0112C19.8993 13.0112 20.7388 12.1718 20.7388 11.1362C20.7388 10.1007 19.8993 9.26123 18.8638 9.26123C17.8282 9.26123 16.9888 10.1007 16.9888 11.1362C16.9888 12.1718 17.8282 13.0112 18.8638 13.0112Z" fill="#1976D2" />
</svg>