<svg width="32" height="32" viewBox="0 0 32 32" fill="none" xmlns="http://www.w3.org/2000/svg">
  <path d="M16.3896 4.81934C16.2699 4.81912 16.1518 4.84575 16.0438 4.89725C15.9358 4.94876 15.8407 5.02383 15.7656 5.11694L15.6232 5.22254C12.8632 4.36814 9.71438 4.99534 7.52238 7.10734C6.6042 7.97818 5.92116 9.06708 5.5368 10.2728C5.15243 11.4785 5.07922 12.7618 5.32398 14.0033L5.24398 14.0769L3.99758 15.2769C3.75648 15.5057 3.56447 15.7811 3.43326 16.0864C3.30204 16.3917 3.23438 16.7206 3.23438 17.0529C3.23438 17.3853 3.30204 17.7141 3.43326 18.0195C3.56447 18.3248 3.75648 18.6002 3.99758 18.8289C4.63438 19.4433 5.51758 19.6737 6.33838 19.5201C6.43918 19.9825 6.67438 20.4225 7.04718 20.7809C7.53838 21.2545 8.17678 21.4993 8.81998 21.5169C8.83758 22.1361 9.09198 22.7505 9.58318 23.2241C10.0744 23.6977 10.7144 23.9441 11.3576 23.9601C11.3736 24.5793 11.6296 25.1953 12.1208 25.6689C12.591 26.1152 13.207 26.376 13.8548 26.4031C14.5025 26.4301 15.1381 26.2216 15.644 25.8161L16.3432 26.4881C17.3672 27.4753 19.028 27.4753 20.052 26.4881C20.5416 26.0177 20.796 25.4065 20.8184 24.7889C21.4584 24.7697 22.0904 24.5249 22.5784 24.0545C23.0664 23.5841 23.3224 22.9713 23.3416 22.3537C23.9917 22.3302 24.6105 22.0689 25.0808 21.6193C25.4696 21.2465 25.7096 20.7841 25.8024 20.3009C26.2142 20.373 26.6372 20.3475 27.0374 20.2263C27.4376 20.1051 27.8037 19.8918 28.1064 19.6033C28.3477 19.3746 28.54 19.0991 28.6713 18.7936C28.8027 18.4881 28.8704 18.1591 28.8704 17.8265C28.8704 17.494 28.8027 17.165 28.6713 16.8595C28.54 16.554 28.3477 16.2785 28.1064 16.0497L26.9544 14.9409L27.1896 14.0609C27.6637 12.2617 27.4228 10.3489 26.5176 8.72334C25.18 6.31374 22.5848 4.82574 19.7784 4.82574H17.8104L17.556 4.81934H16.3896ZM20.3144 10.7649L24.1624 14.4721L24.1672 14.4753L26.9528 17.1601C27.0433 17.2459 27.1153 17.3493 27.1646 17.4639C27.2138 17.5784 27.2392 17.7018 27.2392 17.8265C27.2392 17.9512 27.2138 18.0746 27.1646 18.1892C27.1153 18.3038 27.0433 18.4071 26.9528 18.4929C26.7657 18.6696 26.5181 18.768 26.2608 18.768C26.0035 18.768 25.7559 18.6696 25.5688 18.4929L23.4552 16.4577C23.3003 16.3091 23.0939 16.2261 22.8792 16.2261C22.6645 16.2261 22.4581 16.3091 22.3032 16.4577L22.2808 16.4769C22.2058 16.5486 22.146 16.6348 22.1052 16.7302C22.0645 16.8257 22.0434 16.9284 22.0434 17.0321C22.0434 17.1359 22.0645 17.2386 22.1052 17.334C22.146 17.4295 22.2058 17.5156 22.2808 17.5873L23.9288 19.1745C24.3128 19.5425 24.3128 20.1409 23.9288 20.5105C23.7588 20.6716 23.5382 20.7684 23.3046 20.7845C23.071 20.8005 22.8392 20.7348 22.6488 20.5985C22.4899 20.4837 22.2958 20.4282 22.1003 20.4417C21.9047 20.4551 21.7201 20.5367 21.5784 20.6721C21.4399 20.8045 21.3563 20.9842 21.3442 21.1753C21.332 21.3665 21.3922 21.5553 21.5128 21.7041C21.6564 21.884 21.7272 22.1113 21.7112 22.341C21.6952 22.5706 21.5936 22.7859 21.4264 22.9441C21.254 23.1076 21.0295 23.2049 20.7924 23.219C20.5553 23.233 20.3208 23.1629 20.1304 23.0209C19.9723 22.9023 19.7774 22.8434 19.5801 22.8545C19.3828 22.8657 19.1957 22.9461 19.052 23.0817C18.9117 23.2139 18.8267 23.3943 18.8139 23.5866C18.8011 23.7789 18.8616 23.969 18.9832 24.1185C19.1309 24.3006 19.2043 24.5317 19.1885 24.7656C19.1728 24.9995 19.0691 25.2187 18.8984 25.3793C18.709 25.5591 18.4579 25.6593 18.1968 25.6593C17.9357 25.6593 17.6846 25.5591 17.4952 25.3793L16.8024 24.7121L17.0552 24.4689C17.2965 24.2402 17.4888 23.9647 17.6201 23.6592C17.7515 23.3537 17.8192 23.0247 17.8192 22.6921C17.8192 22.3596 17.7515 22.0306 17.6201 21.7251C17.4888 21.4196 17.2965 21.1441 17.0552 20.9153C16.5767 20.4576 15.9444 20.1951 15.2824 20.1793C15.2626 19.5315 14.9884 18.9176 14.5192 18.4705C14.04 18.013 13.4071 17.7511 12.7448 17.7361C12.725 17.0883 12.4508 16.4744 11.9816 16.0273C11.6742 15.7348 11.3016 15.5196 10.8945 15.3997C10.4874 15.2798 10.0577 15.2585 9.64078 15.3377C9.53504 14.8564 9.28828 14.4174 8.93198 14.0769C8.65891 13.8158 8.33326 13.6159 7.97678 13.4906C7.6203 13.3654 7.24119 13.3176 6.86478 13.3505C6.73899 12.413 6.83727 11.4589 7.15155 10.5667C7.46584 9.67449 7.98717 8.86949 8.67278 8.21774C9.36574 7.55555 10.1967 7.05491 11.1059 6.75173C12.0152 6.44855 12.9803 6.35033 13.932 6.46414L11.604 8.17614C11.3061 8.39257 11.0552 8.66712 10.8664 8.98322C10.6776 9.29932 10.5548 9.6504 10.5055 10.0153C10.4561 10.3801 10.4812 10.7512 10.5793 11.1061C10.6773 11.461 10.8463 11.7924 11.076 12.0801C11.5407 12.6622 12.2118 13.0428 12.9499 13.143C13.6879 13.2431 14.4362 13.055 15.0392 12.6177L17.5608 10.7665L20.3144 10.7649ZM12.5512 9.46414L16.6984 6.41934H17.556C17.6344 6.41859 17.7129 6.42072 17.7912 6.42574H19.7784C22.0248 6.42574 24.0744 7.61774 25.1192 9.50094C25.8264 10.7745 26.012 12.2545 25.6424 13.6513L25.6376 13.6673L21.2216 9.40014C21.0719 9.25 20.8688 9.16541 20.6568 9.16494H17.2968C17.127 9.16526 16.9617 9.21962 16.8248 9.32014L14.092 11.3265C13.8234 11.5184 13.4918 11.6005 13.1647 11.5562C12.8377 11.5119 12.5398 11.3445 12.332 11.0881C12.2352 10.9689 12.1639 10.8312 12.1224 10.6834C12.0809 10.5356 12.07 10.3809 12.0906 10.2288C12.1111 10.0766 12.1626 9.9303 12.2418 9.7988C12.321 9.6673 12.4263 9.55341 12.5512 9.46414ZM13.2584 23.2401L13.2744 23.2241L14.5192 22.0241L14.5336 22.0113C14.7217 21.8408 14.9673 21.7475 15.2212 21.7502C15.4751 21.7529 15.7187 21.8513 15.9032 22.0257C15.9937 22.1115 16.0657 22.2149 16.115 22.3295C16.1642 22.444 16.1896 22.5674 16.1896 22.6921C16.1896 22.8168 16.1642 22.9402 16.115 23.0548C16.0657 23.1694 15.9937 23.2727 15.9032 23.3585L14.6568 24.5585C14.4697 24.7352 14.2221 24.8336 13.9648 24.8336C13.7075 24.8336 13.4599 24.7352 13.2728 24.5585C13.1835 24.474 13.1121 24.3724 13.0628 24.2597C13.0135 24.1471 12.9873 24.0257 12.9858 23.9027C12.9843 23.7798 13.0075 23.6578 13.0541 23.5439C13.1006 23.4301 13.1712 23.3268 13.2584 23.2401ZM13.38 20.9009L13.364 20.9153L12.1192 22.1153L12.1032 22.1297C11.9149 22.2996 11.6696 22.3923 11.4161 22.3894C11.1625 22.3864 10.9194 22.288 10.7352 22.1137C10.6457 22.0288 10.5742 21.9268 10.5251 21.8137C10.4759 21.7005 10.45 21.5787 10.449 21.4553C10.4479 21.332 10.4717 21.2097 10.519 21.0957C10.5662 20.9818 10.636 20.8785 10.724 20.7921L10.7352 20.7809L11.98 19.5809L11.9912 19.5697C12.1791 19.3978 12.4251 19.3034 12.6798 19.3055C12.9345 19.3076 13.1789 19.406 13.364 19.5809C13.4535 19.6655 13.5252 19.7672 13.5746 19.88C13.624 19.9928 13.6503 20.1144 13.6518 20.2375C13.6533 20.3607 13.63 20.4829 13.5833 20.5969C13.5366 20.7108 13.4675 20.8142 13.38 20.9009ZM10.828 18.4705L9.58158 19.6705L9.57038 19.6817C9.38247 19.8536 9.13645 19.948 8.88178 19.946C8.62711 19.9439 8.38266 19.8455 8.19758 19.6705C8.10709 19.5847 8.03503 19.4814 7.98578 19.3668C7.93654 19.2522 7.91114 19.1288 7.91114 19.0041C7.91114 18.8794 7.93654 18.756 7.98578 18.6415C8.03503 18.5269 8.10709 18.4235 8.19758 18.3377L9.44238 17.1377C9.62957 16.9606 9.87748 16.8619 10.1352 16.8619C10.3929 16.8619 10.6408 16.9606 10.828 17.1377C10.9177 17.2227 10.9894 17.3248 11.0387 17.4381C11.088 17.5514 11.114 17.6734 11.115 17.797C11.1161 17.9205 11.0922 18.043 11.0448 18.1571C10.9974 18.2712 10.9275 18.3745 10.8392 18.4609L10.828 18.4705ZM7.77838 16.5201L6.53358 17.7201C6.3464 17.8973 6.09848 17.996 5.84078 17.996C5.58308 17.996 5.33517 17.8973 5.14798 17.7201C5.05724 17.6343 4.98496 17.5309 4.93557 17.4161C4.88617 17.3014 4.86069 17.1778 4.86069 17.0529C4.86069 16.928 4.88617 16.8044 4.93557 16.6897C4.98496 16.575 5.05724 16.4716 5.14798 16.3857L6.39438 15.1857C6.58148 15.0091 6.82906 14.9107 7.08638 14.9107C7.3437 14.9107 7.59128 15.0091 7.77838 15.1857C7.86912 15.2716 7.9414 15.375 7.9908 15.4897C8.04019 15.6044 8.06567 15.728 8.06567 15.8529C8.06567 15.9778 8.04019 16.1014 7.9908 16.2161C7.9414 16.3309 7.86912 16.4343 7.77838 16.5201Z" fill="#1976D2" />
</svg>