<svg width="30" height="30" viewBox="0 0 30 30" fill="none" xmlns="http://www.w3.org/2000/svg">
  <path d="M15 6.87523L14.325 7.52523C14.4125 7.61596 14.5173 7.68813 14.6333 7.73743C14.7493 7.78672 14.874 7.81213 15 7.81213C15.126 7.81213 15.2507 7.78672 15.3667 7.73743C15.4827 7.68813 15.5875 7.61596 15.675 7.52523L15 6.87523ZM11.7825 22.9027C9.8875 21.409 7.81625 19.9502 6.1725 18.1002C4.5625 16.2852 3.4375 14.169 3.4375 11.4215H1.5625C1.5625 14.754 2.95 17.2965 4.77125 19.3452C6.55875 21.3577 8.83875 22.9702 10.6213 24.3752L11.7825 22.9027ZM3.4375 11.4215C3.4375 8.73398 4.95625 6.47898 7.03 5.53023C9.045 4.60898 11.7525 4.85273 14.325 7.52523L15.675 6.22648C12.625 3.05523 9.08 2.53148 6.25 3.82523C3.4825 5.09148 1.5625 8.03148 1.5625 11.4215H3.4375ZM10.6213 24.3752C11.2625 24.8802 11.95 25.4177 12.6462 25.8252C13.3425 26.2327 14.1375 26.5627 15 26.5627V24.6877C14.6125 24.6877 14.1575 24.5377 13.5925 24.2065C13.0262 23.8765 12.44 23.4215 11.7825 22.9027L10.6213 24.3752ZM19.3787 24.3752C21.1613 22.969 23.4412 21.359 25.2288 19.3452C27.05 17.2952 28.4375 14.754 28.4375 11.4215H26.5625C26.5625 14.169 25.4375 16.2852 23.8275 18.1002C22.1838 19.9502 20.1125 21.409 18.2175 22.9027L19.3787 24.3752ZM28.4375 11.4215C28.4375 8.03148 26.5187 5.09148 23.75 3.82523C20.92 2.53148 17.3775 3.05523 14.325 6.22523L15.675 7.52523C18.2475 4.85398 20.955 4.60898 22.97 5.53023C25.0437 6.47898 26.5625 8.73273 26.5625 11.4215H28.4375ZM18.2175 22.9027C17.56 23.4215 16.9738 23.8765 16.4075 24.2065C15.8413 24.5365 15.3875 24.6877 15 24.6877V26.5627C15.8625 26.5627 16.6575 26.2315 17.3538 25.8252C18.0513 25.4177 18.7375 24.8802 19.3787 24.3752L18.2175 22.9027Z" fill="#1976D2" />
</svg>