<svg width="32" height="31" viewBox="0 0 32 31" fill="none" xmlns="http://www.w3.org/2000/svg">
  <path d="M11.601 23.0932C11.5421 21.6458 10.5848 20.2854 9.29358 19.0236C7.92849 17.6905 6.99169 15.9808 6.60282 14.1129C6.21394 12.2449 6.39063 10.3034 7.11033 8.53632C7.83003 6.76924 9.06007 5.25676 10.6434 4.19202C12.2267 3.12727 14.0914 2.55859 15.9994 2.55859C17.9075 2.55859 19.7722 3.12727 21.3555 4.19202C22.9388 5.25676 24.1688 6.76924 24.8885 8.53632C25.6082 10.3034 25.7849 12.2449 25.3961 14.1129C25.0072 15.9808 24.0704 17.6905 22.7053 19.0236C21.3731 20.3251 20.3954 21.7328 20.3954 23.234V25.2751C20.3954 26.0388 20.092 26.7712 19.552 27.3112C19.012 27.8512 18.2796 28.1546 17.5159 28.1546H14.4791C13.7154 28.1546 12.983 27.8512 12.443 27.3112C11.903 26.7712 11.5997 26.0388 11.5997 25.2751L11.601 23.0932ZM8.32097 12.1578C8.31948 13.1817 8.52349 14.1956 8.92093 15.1393C9.31836 16.083 9.90114 16.9373 10.6347 17.6517C11.583 18.5782 12.5697 19.7415 13.1085 21.116H18.8904C19.4292 19.7415 20.4158 18.577 21.3641 17.6517C22.2703 16.7668 22.9435 15.6715 23.3237 14.4633C23.704 13.2552 23.7794 11.9717 23.5434 10.7274C23.3074 9.48297 22.7672 8.3163 21.971 7.33128C21.1748 6.34626 20.1473 5.57349 18.9801 5.08183C17.8128 4.59017 16.5421 4.39489 15.2811 4.51339C14.0201 4.63188 12.8079 5.06047 11.7527 5.76097C10.6975 6.46147 9.83194 7.41212 9.23318 8.52822C8.63442 9.64432 8.32104 10.8912 8.32097 12.1578ZM13.5206 23.3082V25.2751C13.5206 25.805 13.9493 26.235 14.4804 26.235H17.5159C17.7705 26.235 18.0146 26.1338 18.1946 25.9538C18.3746 25.7738 18.4757 25.5297 18.4757 25.2751V23.0356H13.5193V23.0573C13.5213 23.1409 13.5226 23.2246 13.5206 23.3082ZM2.24219 12.1578C2.24219 11.9032 2.34331 11.6591 2.52331 11.4791C2.70331 11.2991 2.94744 11.198 3.202 11.198H4.48174C4.7363 11.198 4.98043 11.2991 5.16043 11.4791C5.34043 11.6591 5.44155 11.9032 5.44155 12.1578C5.44155 12.4123 5.34043 12.6565 5.16043 12.8365C4.98043 13.0165 4.7363 13.1176 4.48174 13.1176H3.202C2.94744 13.1176 2.70331 13.0165 2.52331 12.8365C2.34331 12.6565 2.24219 12.4123 2.24219 12.1578ZM5.39676 4.92721C5.28752 4.86419 5.16694 4.8233 5.0419 4.80688C4.91686 4.79046 4.78981 4.79883 4.668 4.83151C4.54619 4.86419 4.43202 4.92054 4.33199 4.99735C4.23196 5.07415 4.14804 5.16991 4.08502 5.27914C4.022 5.38838 3.98111 5.50896 3.96469 5.634C3.94827 5.75904 3.95663 5.88609 3.98931 6.0079C4.05531 6.2539 4.21633 6.4636 4.43695 6.59088L5.54521 7.23075C5.76582 7.35803 6.02796 7.39246 6.27396 7.32646C6.51996 7.26046 6.72967 7.09944 6.85694 6.87882C6.98422 6.65821 7.01865 6.39607 6.95265 6.15007C6.88665 5.90407 6.72563 5.69436 6.50502 5.56709L5.39676 4.92721ZM4.08502 19.0364C3.958 18.8159 3.92372 18.554 3.98972 18.3083C4.05571 18.0626 4.21657 17.8531 4.43695 17.7259L5.54521 17.0861C5.76481 16.9691 6.02125 16.942 6.26045 17.0105C6.49965 17.0789 6.70292 17.2376 6.8274 17.453C6.95187 17.6685 6.98783 17.9238 6.92769 18.1652C6.86755 18.4067 6.716 18.6153 6.50502 18.7472L5.39676 19.387C5.28761 19.4502 5.1671 19.4912 5.04209 19.5078C4.91709 19.5243 4.79005 19.5161 4.66823 19.4835C4.54642 19.4509 4.43221 19.3947 4.33214 19.318C4.23207 19.2413 4.1481 19.1456 4.08502 19.0364ZM27.5171 11.198C27.2626 11.198 27.0184 11.2991 26.8384 11.4791C26.6584 11.6591 26.5573 11.9032 26.5573 12.1578C26.5573 12.4123 26.6584 12.6565 26.8384 12.8365C27.0184 13.0165 27.2626 13.1176 27.5171 13.1176H28.7969C29.0514 13.1176 29.2956 13.0165 29.4756 12.8365C29.6556 12.6565 29.7567 12.4123 29.7567 12.1578C29.7567 11.9032 29.6556 11.6591 29.4756 11.4791C29.2956 11.2991 29.0514 11.198 28.7969 11.198H27.5171ZM25.1432 17.4367C25.2063 17.3275 25.2903 17.2318 25.3903 17.1551C25.4904 17.0784 25.6046 17.0222 25.7264 16.9896C25.8482 16.957 25.9753 16.9488 26.1003 16.9653C26.2253 16.9819 26.3458 17.0229 26.4549 17.0861L27.5632 17.7259C27.6769 17.7865 27.7773 17.8693 27.8583 17.9695C27.9393 18.0697 27.9994 18.1851 28.0348 18.309C28.0703 18.4329 28.0804 18.5626 28.0647 18.6905C28.0489 18.8184 28.0076 18.9417 27.9431 19.0533C27.8787 19.1649 27.7924 19.2623 27.6895 19.3398C27.5866 19.4173 27.4691 19.4733 27.3441 19.5045C27.2191 19.5356 27.089 19.5413 26.9618 19.5211C26.8345 19.5009 26.7127 19.4553 26.6034 19.387L25.4951 18.7472C25.2748 18.62 25.1139 18.4105 25.0479 18.1648C24.9819 17.9191 25.0162 17.6572 25.1432 17.4367ZM25.4951 5.56709C25.2745 5.69436 25.1135 5.90407 25.0475 6.15007C24.9815 6.39607 25.0159 6.65821 25.1432 6.87882C25.2705 7.09944 25.4802 7.26046 25.7262 7.32646C25.9722 7.39246 26.2343 7.35803 26.4549 7.23075L27.5632 6.59088C27.7838 6.4636 27.9448 6.2539 28.0108 6.0079C28.0768 5.7619 28.0424 5.49976 27.9151 5.27914C27.7879 5.05853 27.5782 4.89751 27.3322 4.83151C27.0862 4.76551 26.824 4.79994 26.6034 4.92721L25.4951 5.56709Z" fill="#1976D2" />
</svg>