<svg width="205" height="72" viewBox="0 0 205 72" fill="none" xmlns="http://www.w3.org/2000/svg">
<path d="M29.6484 15.1289V16.4766C29.5833 16.4766 29.4922 16.4701 29.375 16.457C29.2578 16.444 29.1732 16.4375 29.1211 16.4375C28.1185 16.4375 27.4349 16.7565 27.0703 17.3945C26.7057 18.0065 26.5234 19.3542 26.5234 21.4375C26.5234 21.6328 26.5234 21.9193 26.5234 22.2969C26.5234 22.6615 26.5299 23.1172 26.543 23.6641C26.556 24.2109 26.5625 24.7122 26.5625 25.168C26.5625 25.6107 26.5625 26.0078 26.5625 26.3594V31.5547C26.5625 31.9062 26.5625 32.3099 26.5625 32.7656C26.5625 33.2083 26.556 33.7096 26.543 34.2695C26.5299 34.8164 26.5234 35.2786 26.5234 35.6562C26.5234 36.0208 26.5234 36.3073 26.5234 36.5156C26.5234 38.6641 26.7057 40.0573 27.0703 40.6953C27.4479 41.3464 28.1315 41.6719 29.1211 41.6719C29.3034 41.6719 29.4401 41.6719 29.5312 41.6719C29.6354 41.6589 29.7266 41.6523 29.8047 41.6523V43C28.776 42.9479 27.819 42.9089 26.9336 42.8828C26.0612 42.8568 25.3255 42.8438 24.7266 42.8438C24.0234 42.8438 23.2357 42.8568 22.3633 42.8828C21.4909 42.9089 20.5469 42.9479 19.5312 43V41.6328C19.6094 41.6328 19.7266 41.6393 19.8828 41.6523C20.0391 41.6654 20.1497 41.6719 20.2148 41.6719C21.2695 41.6719 21.9857 41.3789 22.3633 40.793C22.7409 40.194 22.9297 38.7812 22.9297 36.5547V31.8086L22.8711 17.4922C21.5299 17.4531 20.2669 17.4271 19.082 17.4141C17.8971 17.401 16.7513 17.388 15.6445 17.375C14.5508 17.388 13.4115 17.401 12.2266 17.4141C11.0547 17.4271 9.79818 17.4531 8.45703 17.4922L8.39844 31.8086V36.125C8.39844 38.612 8.58724 40.1615 8.96484 40.7734C9.32943 41.3724 10.0586 41.6719 11.1523 41.6719C11.2174 41.6719 11.3281 41.6654 11.4844 41.6523C11.6406 41.6393 11.7578 41.6328 11.8359 41.6328V43C10.8203 42.9479 9.8763 42.9089 9.00391 42.8828C8.13151 42.8568 7.34375 42.8438 6.64062 42.8438C6.04167 42.8438 5.30599 42.8568 4.43359 42.8828C3.57422 42.9089 2.61719 42.9479 1.5625 43V41.6523C1.64062 41.6523 1.72526 41.6589 1.81641 41.6719C1.92057 41.6719 2.05729 41.6719 2.22656 41.6719C3.22917 41.6719 3.91927 41.3464 4.29688 40.6953C4.66146 40.0573 4.84375 38.6641 4.84375 36.5156C4.84375 36.3073 4.84375 36.0208 4.84375 35.6562C4.84375 35.2786 4.83724 34.8164 4.82422 34.2695C4.8112 33.7096 4.80469 33.2083 4.80469 32.7656C4.80469 32.3099 4.80469 31.9062 4.80469 31.5547V26.3594C4.80469 26.0339 4.80469 25.6628 4.80469 25.2461C4.80469 24.8294 4.8112 24.3737 4.82422 23.8789C4.83724 23.3711 4.84375 22.9479 4.84375 22.6094C4.84375 22.2578 4.84375 21.9909 4.84375 21.8086C4.84375 19.569 4.65495 18.1107 4.27734 17.4336C3.89974 16.7695 3.20312 16.4375 2.1875 16.4375C2.14844 16.4375 2.07031 16.444 1.95312 16.457C1.83594 16.4701 1.74479 16.4766 1.67969 16.4766V15.1289C3.20312 15.1549 4.61589 15.181 5.91797 15.207C7.23307 15.2331 8.45052 15.2461 9.57031 15.2461C10.6771 15.2461 11.7383 15.2526 12.7539 15.2656C13.7695 15.2786 14.7331 15.2852 15.6445 15.2852C16.556 15.2852 17.513 15.2852 18.5156 15.2852C19.5182 15.2721 20.5794 15.2591 21.6992 15.2461C23.9388 15.2331 26.5755 15.194 29.6094 15.1289H29.6484ZM39.0234 25.1484C38.9323 27.7786 38.8672 30.0117 38.8281 31.8477C38.7891 33.6836 38.7695 35.1354 38.7695 36.2031V38.2734C38.7695 39.7969 38.9128 40.7474 39.1992 41.125C39.4857 41.5156 40.0456 41.7109 40.8789 41.7109C40.957 41.7109 41.0612 41.7044 41.1914 41.6914C41.3216 41.6784 41.4193 41.6719 41.4844 41.6719V43C40.3776 42.9219 39.4857 42.8698 38.8086 42.8438C38.1315 42.8177 37.5586 42.8047 37.0898 42.8047C36.8815 42.8047 36.6406 42.8112 36.3672 42.8242C36.1068 42.8242 35.8138 42.8307 35.4883 42.8438C35.1628 42.8568 34.7591 42.8763 34.2773 42.9023C33.8086 42.9284 33.2487 42.9609 32.5977 43V41.6328H33.0859C34.7005 41.6328 35.5143 40.0443 35.5273 36.8672V35.793L35.6055 30.9688C35.6055 30.7865 35.6055 30.5846 35.6055 30.3633C35.6055 30.1419 35.612 29.901 35.625 29.6406C35.638 29.3802 35.6445 29.1589 35.6445 28.9766C35.6445 28.7943 35.6445 28.6576 35.6445 28.5664C35.6445 27.4987 35.5404 26.8021 35.332 26.4766C35.1367 26.138 34.7721 25.9688 34.2383 25.9688C34.1341 25.9688 33.9779 25.9818 33.7695 26.0078C33.5742 26.0208 33.3594 26.0404 33.125 26.0664L32.9297 24.8359C34.9479 24.4453 36.9987 23.8464 39.082 23.0391L39.0234 25.1484ZM37.2852 14.7188L38.5938 15.6953C38.9323 15.9557 39.1797 16.2161 39.3359 16.4766C39.5052 16.724 39.5898 16.9909 39.5898 17.2773C39.5898 17.5638 39.5247 17.8112 39.3945 18.0195C39.2643 18.2148 39.0234 18.4492 38.6719 18.7227L37.2852 19.7578L35.9961 18.7617C35.6445 18.4753 35.3841 18.2148 35.2148 17.9805C35.0586 17.7331 34.9805 17.4727 34.9805 17.1992C34.9805 16.9388 35.0391 16.7044 35.1562 16.4961C35.2865 16.2878 35.5404 16.0469 35.918 15.7734L37.2852 14.7188ZM47.1484 38.7227C47.8125 37.4206 48.3659 35.9427 48.8086 34.2891C49.2513 32.6224 49.5898 30.7279 49.8242 28.6055C49.8633 28.2799 49.8828 27.9219 49.8828 27.5312C49.8828 27.1276 49.8242 26.7565 49.707 26.418C49.5898 26.0794 49.388 25.793 49.1016 25.5586C48.8151 25.3242 48.3984 25.207 47.8516 25.207H47.4023V23.8398C48.0404 23.8659 48.6003 23.8919 49.082 23.918C49.5768 23.931 50.0651 23.944 50.5469 23.957C51.0417 23.9701 51.5625 23.9831 52.1094 23.9961C52.6693 24.0091 53.3268 24.0156 54.082 24.0156C54.8503 24.0156 55.651 24.0156 56.4844 24.0156C57.3307 24.0026 58.1641 23.9896 58.9844 23.9766C59.8177 23.9635 60.6185 23.944 61.3867 23.918C62.168 23.8919 62.8776 23.8659 63.5156 23.8398V25.207H63.0664C62.5065 25.207 62.0703 25.3307 61.7578 25.5781C61.4583 25.8255 61.237 26.1706 61.0938 26.6133C60.9635 27.043 60.8854 27.5573 60.8594 28.1562C60.8333 28.7422 60.8203 29.3802 60.8203 30.0703V34.7383L60.8789 39.5234C60.8789 39.888 60.918 40.181 60.9961 40.4023C61.0742 40.6107 61.1784 40.7734 61.3086 40.8906C61.4388 40.9948 61.5951 41.0599 61.7773 41.0859C61.9596 41.112 62.1484 41.112 62.3438 41.0859L64.1211 40.9297C64.043 42.0365 63.9844 42.9935 63.9453 43.8008C63.9062 44.6211 63.8802 45.3438 63.8672 45.9688C63.8542 46.5938 63.8477 47.1471 63.8477 47.6289C63.8607 48.1237 63.8802 48.5924 63.9062 49.0352L62.4805 49.1914C62.4284 47.9805 62.2917 47.0039 62.0703 46.2617C61.849 45.5326 61.582 44.9531 61.2695 44.5234C60.957 44.0938 60.612 43.7812 60.2344 43.5859C59.8698 43.4036 59.5052 43.2604 59.1406 43.1562C58.9844 43.1042 58.7956 43.0586 58.5742 43.0195C58.3659 42.9805 58.0599 42.9479 57.6562 42.9219C57.2526 42.8828 56.7253 42.8568 56.0742 42.8438C55.4232 42.8177 54.5768 42.8047 53.5352 42.8047C52.4935 42.8047 51.6536 42.8177 51.0156 42.8438C50.3906 42.8568 49.8958 42.8828 49.5312 42.9219C49.1667 42.9479 48.8932 42.9805 48.7109 43.0195C48.5286 43.0586 48.3724 43.1042 48.2422 43.1562C47.9688 43.2604 47.6693 43.3971 47.3438 43.5664C47.0182 43.7357 46.7122 44.0221 46.4258 44.4258C46.1393 44.8424 45.8854 45.4089 45.6641 46.125C45.4557 46.8542 45.3255 47.8242 45.2734 49.0352L43.8477 49.1914C43.8607 48.7487 43.8737 48.2669 43.8867 47.7461C43.8997 47.2383 43.8997 46.6523 43.8867 45.9883C43.8737 45.3372 43.8477 44.5885 43.8086 43.7422C43.7695 42.9089 43.7109 41.9388 43.6328 40.832L44.9609 40.9883C45.3646 41.0404 45.7357 40.8646 46.0742 40.4609C46.4128 40.0443 46.7708 39.4648 47.1484 38.7227ZM48.0469 41.0078C48.8021 41.0469 49.6289 41.0729 50.5273 41.0859C51.4258 41.099 52.2917 41.1055 53.125 41.1055C53.75 41.1055 54.4531 41.099 55.2344 41.0859C56.0156 41.0729 56.7969 41.0469 57.5781 41.0078L57.6172 31.8477V25.8711C57.3958 25.8581 57.1354 25.8451 56.8359 25.832C56.5365 25.806 56.2305 25.793 55.918 25.793C55.6055 25.7799 55.306 25.7734 55.0195 25.7734C54.7461 25.7604 54.5182 25.7539 54.3359 25.7539C53.9583 25.7539 53.5938 25.7669 53.2422 25.793C52.8906 25.806 52.4935 25.832 52.0508 25.8711C51.9336 27.1602 51.7839 28.4492 51.6016 29.7383C51.4323 31.0273 51.1979 32.3034 50.8984 33.5664C50.599 34.8294 50.2148 36.0859 49.7461 37.3359C49.2904 38.5729 48.724 39.7969 48.0469 41.0078ZM67.1094 23.5664C67.6953 23.7878 68.5482 23.918 69.668 23.957C70.8008 23.9831 72.2526 23.9961 74.0234 23.9961H77.2656C77.8255 23.9961 78.4245 23.9961 79.0625 23.9961C79.7005 23.9831 80.3385 23.9635 80.9766 23.9375C81.6146 23.8984 82.2331 23.8398 82.832 23.7617C83.431 23.6836 83.9714 23.5729 84.4531 23.4297C84.4661 24.1849 84.4922 25.0768 84.5312 26.1055C84.5833 27.1211 84.7591 28.2995 85.0586 29.6406L83.7305 29.8945C83.5091 28.957 83.2617 28.2214 82.9883 27.6875C82.7279 27.1406 82.3893 26.7305 81.9727 26.457C81.569 26.1706 81.0742 25.9948 80.4883 25.9297C79.9023 25.8516 79.1732 25.8125 78.3008 25.8125H77.3047L77.2656 31.3984C77.2526 32.8568 77.2461 34.1263 77.2461 35.207C77.2591 36.2747 77.2917 37.1862 77.3438 37.9414C77.3958 38.6966 77.474 39.3216 77.5781 39.8164C77.6953 40.2982 77.8581 40.6758 78.0664 40.9492C78.2747 41.2227 78.5352 41.4115 78.8477 41.5156C79.1602 41.6198 79.5443 41.6719 80 41.6719H80.5078V43C80.0521 42.974 79.4076 42.9349 78.5742 42.8828C77.7539 42.8307 76.7773 42.8047 75.6445 42.8047C74.4857 42.8047 73.5221 42.8307 72.7539 42.8828C71.9857 42.9349 71.3281 42.974 70.7812 43V41.6719H71.2695C71.6992 41.6719 72.0833 41.6263 72.4219 41.5352C72.7734 41.444 73.0664 41.1966 73.3008 40.793C73.5352 40.3763 73.7109 39.7448 73.8281 38.8984C73.9583 38.0391 74.0234 36.8477 74.0234 35.3242V31.3984L73.9844 25.8125H73.1445C72.3633 25.8125 71.6602 25.8516 71.0352 25.9297C70.4232 25.9948 69.8828 26.1641 69.4141 26.4375C68.9453 26.7109 68.5482 27.1211 68.2227 27.668C67.8971 28.2018 67.6432 28.944 67.4609 29.8945L66.25 29.6406C66.3542 29.224 66.4453 28.8073 66.5234 28.3906C66.6016 27.974 66.6732 27.5312 66.7383 27.0625C66.8164 26.5938 66.8815 26.0794 66.9336 25.5195C66.9987 24.9466 67.0573 24.2956 67.1094 23.5664ZM92.5 40.168C93.2812 40.5456 94.0625 40.8385 94.8438 41.0469C95.625 41.2552 96.3672 41.3594 97.0703 41.3594C98.9974 41.3594 100.508 40.7279 101.602 39.4648C102.708 38.1888 103.262 36.418 103.262 34.1523C103.262 31.7044 102.721 29.7513 101.641 28.293C100.56 26.8216 99.1406 26.0859 97.3828 26.0859C96.6276 26.0859 95.8333 26.2096 95 26.457C94.1797 26.7044 93.3854 27.056 92.6172 27.5117C92.5651 29.4128 92.526 31.2096 92.5 32.9023C92.474 34.5951 92.4609 36.1445 92.4609 37.5508C92.4609 37.7982 92.4674 38.2148 92.4805 38.8008C92.4935 39.3737 92.5 39.8294 92.5 40.168ZM92.7734 22.8047L92.6172 25.9297C93.8021 25.1094 94.9023 24.5104 95.918 24.1328C96.9466 23.7552 97.9557 23.5664 98.9453 23.5664C101.094 23.5664 102.891 24.4258 104.336 26.1445C105.781 27.8503 106.504 29.9727 106.504 32.5117C106.504 35.819 105.579 38.4102 103.73 40.2852C101.895 42.1471 99.349 43.0781 96.0938 43.0781C95.4948 43.0781 94.8893 43.0195 94.2773 42.9023C93.6654 42.7721 93.0599 42.5898 92.4609 42.3555V49.3281C92.4609 50.8646 93.5872 51.6458 95.8398 51.6719H95.8594V53.0781C95 53.013 94.1667 52.9609 93.3594 52.9219C92.5651 52.8958 91.8099 52.8828 91.0938 52.8828C90.6641 52.8828 90.1042 52.8958 89.4141 52.9219C88.724 52.9479 87.6888 53 86.3086 53.0781V51.6719C87.1549 51.6719 87.7279 51.6263 88.0273 51.5352C88.3268 51.457 88.5547 51.3073 88.7109 51.0859C89.0495 50.5 89.2318 47.8438 89.2578 43.1172C89.2578 42.1406 89.2578 41.3789 89.2578 40.832L89.2969 36.3984V30.9297V29.9531C89.2969 28.3385 89.1992 27.3294 89.0039 26.9258C88.8216 26.5221 88.457 26.3203 87.9102 26.3203C87.7799 26.3203 87.6237 26.3333 87.4414 26.3594C87.2591 26.3854 87.0638 26.4245 86.8555 26.4766L86.6602 25.2852C87.7669 24.9727 88.8216 24.6146 89.8242 24.2109C90.8398 23.7943 91.8229 23.3255 92.7734 22.8047ZM125.41 29.7578C125.072 30.0703 124.727 30.3958 124.375 30.7344C124.023 31.0599 123.652 31.4115 123.262 31.7891L119.219 35.6562C118.581 36.2552 117.975 36.8281 117.402 37.375C116.829 37.9219 116.25 38.4818 115.664 39.0547C115.664 39.4062 115.677 39.7383 115.703 40.0508C115.729 40.3633 115.801 40.6367 115.918 40.8711C116.048 41.1055 116.243 41.2943 116.504 41.4375C116.777 41.5677 117.155 41.6328 117.637 41.6328H118.145V43C117.48 42.9479 116.803 42.9023 116.113 42.8633C115.436 42.8242 114.72 42.8047 113.965 42.8047C113.301 42.8047 112.624 42.8242 111.934 42.8633C111.257 42.8893 110.469 42.9349 109.57 43V41.6328H110.02C110.592 41.6328 111.042 41.4635 111.367 41.125C111.693 40.7734 111.934 40.3503 112.09 39.8555C112.259 39.3477 112.363 38.8138 112.402 38.2539C112.441 37.681 112.461 37.1797 112.461 36.75V30.0703C112.461 27.9219 112.292 26.5677 111.953 26.0078C111.784 25.7214 111.543 25.5195 111.23 25.4023C110.931 25.2721 110.54 25.207 110.059 25.207H109.609V23.8398C110.742 23.918 111.628 23.9701 112.266 23.9961C112.904 24.0221 113.418 24.0352 113.809 24.0352C114.225 24.0352 114.753 24.0221 115.391 23.9961C116.042 23.9701 116.927 23.918 118.047 23.8398V25.207H117.5C117.24 25.207 116.992 25.2852 116.758 25.4414C116.523 25.5846 116.322 25.7799 116.152 26.0273C115.827 26.5091 115.664 27.5378 115.664 29.1133V36.5938C116.042 36.2422 116.419 35.8906 116.797 35.5391C117.188 35.1745 117.578 34.8034 117.969 34.4258L122.207 30.4219L125.391 27.3164C125.365 26.7695 125.293 26.3529 125.176 26.0664C125.059 25.7799 124.902 25.5716 124.707 25.4414C124.525 25.3112 124.31 25.2396 124.062 25.2266C123.828 25.2135 123.581 25.207 123.32 25.207H123.027V23.8398C124.147 23.918 125.026 23.9701 125.664 23.9961C126.315 24.0221 126.849 24.0352 127.266 24.0352C127.656 24.0352 128.171 24.0221 128.809 23.9961C129.447 23.9701 130.28 23.918 131.309 23.8398V25.207H130.859C130.299 25.207 129.863 25.3307 129.551 25.5781C129.251 25.8255 129.03 26.1706 128.887 26.6133C128.757 27.043 128.678 27.5573 128.652 28.1562C128.626 28.7422 128.613 29.3802 128.613 30.0703V37.7656C128.613 38.2995 128.626 38.8008 128.652 39.2695C128.678 39.7383 128.757 40.1484 128.887 40.5C129.03 40.8516 129.251 41.1315 129.551 41.3398C129.863 41.5352 130.299 41.6328 130.859 41.6328H131.309V43C130.28 42.9219 129.408 42.8698 128.691 42.8438C127.975 42.8177 127.422 42.8047 127.031 42.8047C126.693 42.8047 126.361 42.8112 126.035 42.8242C125.723 42.8242 125.391 42.8372 125.039 42.8633C124.701 42.8763 124.329 42.8958 123.926 42.9219C123.535 42.9479 123.099 42.974 122.617 43V41.6328H123.125C123.867 41.6328 124.434 41.2422 124.824 40.4609C125.215 39.6667 125.41 38.5013 125.41 36.9648V29.7578ZM150.664 28.8008C150.859 28.3711 151.068 27.9349 151.289 27.4922C151.51 27.0365 151.706 26.6003 151.875 26.1836C152.057 25.7539 152.207 25.3568 152.324 24.9922C152.441 24.6146 152.5 24.2826 152.5 23.9961V23.8398C152.721 23.8659 152.962 23.8919 153.223 23.918C153.496 23.931 153.763 23.9505 154.023 23.9766C154.297 23.9896 154.557 24.0026 154.805 24.0156C155.065 24.0286 155.286 24.0352 155.469 24.0352C155.703 24.0352 155.97 24.0286 156.27 24.0156C156.582 24.0026 156.895 23.9896 157.207 23.9766C157.52 23.9505 157.819 23.931 158.105 23.918C158.392 23.8919 158.639 23.8659 158.848 23.8398L158.926 25.168H158.574C157.832 25.168 157.292 25.3112 156.953 25.5977C156.615 25.8841 156.393 26.2943 156.289 26.8281C156.198 27.362 156.185 28.0195 156.25 28.8008C156.315 29.569 156.387 30.4479 156.465 31.4375L156.855 36.8477C156.908 37.5117 156.973 38.1367 157.051 38.7227C157.142 39.2956 157.272 39.7969 157.441 40.2266C157.624 40.6562 157.858 41.0013 158.145 41.2617C158.444 41.5091 158.822 41.6328 159.277 41.6328H159.824V43C159.473 42.974 159.18 42.9544 158.945 42.9414C158.711 42.9154 158.457 42.8958 158.184 42.8828C157.923 42.8568 157.611 42.8372 157.246 42.8242C156.882 42.8112 156.393 42.7917 155.781 42.7656C155.026 42.7656 154.271 42.7917 153.516 42.8438C152.76 42.8958 151.973 42.9479 151.152 43V41.6328H151.582C151.908 41.6328 152.201 41.5872 152.461 41.4961C152.721 41.3919 152.943 41.2292 153.125 41.0078C153.32 40.7734 153.464 40.4674 153.555 40.0898C153.646 39.6992 153.678 39.2174 153.652 38.6445L153.145 27.4727L147.773 39.2891C147.695 39.4583 147.611 39.6406 147.52 39.8359C147.441 40.0182 147.357 40.2331 147.266 40.4805C147.174 40.7148 147.083 40.9818 146.992 41.2812C146.914 41.5807 146.842 41.9258 146.777 42.3164H145.527C145.423 41.9648 145.332 41.6784 145.254 41.457C145.189 41.2227 145.124 41.0208 145.059 40.8516C145.007 40.6823 144.948 40.5326 144.883 40.4023C144.831 40.2591 144.766 40.1094 144.688 39.9531L139.18 27.8438L138.887 32.2773C138.861 32.5768 138.835 32.987 138.809 33.5078C138.783 34.0156 138.757 34.5495 138.73 35.1094C138.717 35.6693 138.698 36.2161 138.672 36.75C138.659 37.2839 138.652 37.7266 138.652 38.0781V38.6055C138.652 39.2565 138.704 39.7839 138.809 40.1875C138.926 40.5781 139.082 40.8841 139.277 41.1055C139.486 41.3138 139.733 41.457 140.02 41.5352C140.306 41.6003 140.625 41.6328 140.977 41.6328H141.406V43C141.185 42.974 140.723 42.9284 140.02 42.8633C139.329 42.7982 138.353 42.7656 137.09 42.7656C136.842 42.7656 136.608 42.7721 136.387 42.7852C136.165 42.7982 135.924 42.8177 135.664 42.8438C135.404 42.8568 135.104 42.8828 134.766 42.9219C134.427 42.9479 134.017 42.974 133.535 43V41.6328H134.082C134.668 41.6328 135.137 41.4961 135.488 41.2227C135.84 40.9492 136.113 40.5846 136.309 40.1289C136.504 39.6602 136.641 39.1328 136.719 38.5469C136.81 37.9479 136.882 37.3359 136.934 36.7109L137.578 28.2734C137.63 27.5443 137.604 26.9779 137.5 26.5742C137.396 26.1576 137.227 25.8516 136.992 25.6562C136.771 25.4479 136.504 25.3242 136.191 25.2852C135.892 25.2331 135.579 25.207 135.254 25.207H134.941V23.8398C135.033 23.8529 135.182 23.8724 135.391 23.8984C135.612 23.9115 135.859 23.931 136.133 23.957C136.419 23.9701 136.719 23.9896 137.031 24.0156C137.344 24.0286 137.65 24.0352 137.949 24.0352C138.184 24.0352 138.444 24.0286 138.73 24.0156C139.03 24.0026 139.323 23.9896 139.609 23.9766C139.909 23.9505 140.195 23.931 140.469 23.918C140.755 23.8919 141.016 23.8659 141.25 23.8398V23.957C141.25 24.1784 141.283 24.4193 141.348 24.6797C141.413 24.9401 141.484 25.2005 141.562 25.4609C141.654 25.7083 141.751 25.9492 141.855 26.1836C141.96 26.418 142.051 26.6133 142.129 26.7695L146.895 36.9648L150.664 28.8008ZM161.406 23.8594C162.383 23.9245 163.164 23.9701 163.75 23.9961C164.336 24.0221 164.837 24.0352 165.254 24.0352C165.645 24.0352 166.139 24.0221 166.738 23.9961C167.35 23.9701 168.197 23.918 169.277 23.8398V25.207H168.77C168.118 25.207 167.663 25.2982 167.402 25.4805C167.142 25.6497 167.012 25.9557 167.012 26.3984C167.012 26.737 167.585 28.4557 168.73 31.5547C169.824 34.4974 170.729 36.9779 171.445 38.9961C173.255 34.6992 174.525 31.6003 175.254 29.6992C175.996 27.7982 176.367 26.6589 176.367 26.2812C176.367 25.9036 176.224 25.6302 175.938 25.4609C175.651 25.2917 175.182 25.207 174.531 25.207H174.238V23.8398C174.824 23.8919 175.397 23.931 175.957 23.957C176.53 23.9831 177.077 23.9961 177.598 23.9961C178.027 23.9961 178.522 23.9831 179.082 23.957C179.642 23.931 180.241 23.8919 180.879 23.8398V25.207H180.723C180.293 25.207 179.928 25.3047 179.629 25.5C179.342 25.6823 179.095 25.9818 178.887 26.3984C178.861 26.4635 178.75 26.7174 178.555 27.1602C177.174 30.3503 175.697 33.6966 174.121 37.1992C173.34 38.9701 172.344 41.2812 171.133 44.1328C168.529 50.3047 166.523 53.3906 165.117 53.3906C164.596 53.3906 164.16 53.2214 163.809 52.8828C163.457 52.5443 163.281 52.1146 163.281 51.5938C163.281 50.8776 163.783 50.4284 164.785 50.2461C165.189 50.181 165.475 50.1094 165.645 50.0312C166.374 49.7448 167.422 48.0911 168.789 45.0703C169.167 44.224 169.466 43.5599 169.688 43.0781C168.789 40.7604 167.682 37.7852 166.367 34.1523C164.193 28.1628 162.643 25.168 161.719 25.168C161.641 25.168 161.576 25.1745 161.523 25.1875C161.484 25.1875 161.445 25.1875 161.406 25.1875V23.8594ZM197.715 29.7578C197.376 30.0703 197.031 30.3958 196.68 30.7344C196.328 31.0599 195.957 31.4115 195.566 31.7891L191.523 35.6562C190.885 36.2552 190.28 36.8281 189.707 37.375C189.134 37.9219 188.555 38.4818 187.969 39.0547C187.969 39.4062 187.982 39.7383 188.008 40.0508C188.034 40.3633 188.105 40.6367 188.223 40.8711C188.353 41.1055 188.548 41.2943 188.809 41.4375C189.082 41.5677 189.46 41.6328 189.941 41.6328H190.449V43C189.785 42.9479 189.108 42.9023 188.418 42.8633C187.741 42.8242 187.025 42.8047 186.27 42.8047C185.605 42.8047 184.928 42.8242 184.238 42.8633C183.561 42.8893 182.773 42.9349 181.875 43V41.6328H182.324C182.897 41.6328 183.346 41.4635 183.672 41.125C183.997 40.7734 184.238 40.3503 184.395 39.8555C184.564 39.3477 184.668 38.8138 184.707 38.2539C184.746 37.681 184.766 37.1797 184.766 36.75V30.0703C184.766 27.9219 184.596 26.5677 184.258 26.0078C184.089 25.7214 183.848 25.5195 183.535 25.4023C183.236 25.2721 182.845 25.207 182.363 25.207H181.914V23.8398C183.047 23.918 183.932 23.9701 184.57 23.9961C185.208 24.0221 185.723 24.0352 186.113 24.0352C186.53 24.0352 187.057 24.0221 187.695 23.9961C188.346 23.9701 189.232 23.918 190.352 23.8398V25.207H189.805C189.544 25.207 189.297 25.2852 189.062 25.4414C188.828 25.5846 188.626 25.7799 188.457 26.0273C188.132 26.5091 187.969 27.5378 187.969 29.1133V36.5938C188.346 36.2422 188.724 35.8906 189.102 35.5391C189.492 35.1745 189.883 34.8034 190.273 34.4258L194.512 30.4219L197.695 27.3164C197.669 26.7695 197.598 26.3529 197.48 26.0664C197.363 25.7799 197.207 25.5716 197.012 25.4414C196.829 25.3112 196.615 25.2396 196.367 25.2266C196.133 25.2135 195.885 25.207 195.625 25.207H195.332V23.8398C196.452 23.918 197.331 23.9701 197.969 23.9961C198.62 24.0221 199.154 24.0352 199.57 24.0352C199.961 24.0352 200.475 24.0221 201.113 23.9961C201.751 23.9701 202.585 23.918 203.613 23.8398V25.207H203.164C202.604 25.207 202.168 25.3307 201.855 25.5781C201.556 25.8255 201.335 26.1706 201.191 26.6133C201.061 27.043 200.983 27.5573 200.957 28.1562C200.931 28.7422 200.918 29.3802 200.918 30.0703V37.7656C200.918 38.2995 200.931 38.8008 200.957 39.2695C200.983 39.7383 201.061 40.1484 201.191 40.5C201.335 40.8516 201.556 41.1315 201.855 41.3398C202.168 41.5352 202.604 41.6328 203.164 41.6328H203.613V43C202.585 42.9219 201.712 42.8698 200.996 42.8438C200.28 42.8177 199.727 42.8047 199.336 42.8047C198.997 42.8047 198.665 42.8112 198.34 42.8242C198.027 42.8242 197.695 42.8372 197.344 42.8633C197.005 42.8763 196.634 42.8958 196.23 42.9219C195.84 42.9479 195.404 42.974 194.922 43V41.6328H195.43C196.172 41.6328 196.738 41.2422 197.129 40.4609C197.52 39.6667 197.715 38.5013 197.715 36.9648V29.7578ZM198.398 15.4219C198.06 16.2812 197.643 17.0169 197.148 17.6289C196.654 18.2279 196.12 18.7227 195.547 19.1133C194.987 19.5039 194.401 19.7904 193.789 19.9727C193.19 20.1549 192.604 20.2461 192.031 20.2461C191.224 20.2461 190.54 20.1484 189.98 19.9531C189.421 19.7448 188.971 19.4844 188.633 19.1719C188.294 18.8464 188.047 18.4883 187.891 18.0977C187.747 17.694 187.676 17.3034 187.676 16.9258C187.676 16.6523 187.721 16.3919 187.812 16.1445C187.904 15.8841 188.034 15.6562 188.203 15.4609C188.385 15.2656 188.6 15.1159 188.848 15.0117C189.108 14.8945 189.408 14.8359 189.746 14.8359C190.137 14.8359 190.436 14.9206 190.645 15.0898C190.866 15.2461 191.016 15.4414 191.094 15.6758C191.185 15.9102 191.23 16.1576 191.23 16.418C191.23 16.6654 191.211 16.8802 191.172 17.0625C191.068 17.5573 191.126 17.9154 191.348 18.1367C191.569 18.3451 191.96 18.4492 192.52 18.4492C193.431 18.4492 194.303 18.1367 195.137 17.5117C195.983 16.8737 196.699 15.9948 197.285 14.875L198.398 15.4219Z" fill="#1C1C1C"/>
<path d="M14.5 67.175L13.775 66.515C11.2 64.18 9.5 62.635 9.5 60.75C9.5 59.205 10.71 58 12.25 58C13.12 58 13.955 58.405 14.5 59.04C15.045 58.405 15.88 58 16.75 58C18.29 58 19.5 59.205 19.5 60.75C19.5 62.635 17.8 64.18 15.225 66.515L14.5 67.175Z" fill="#1976D2"/>
<path d="M25.8716 68V57.8182H32.0165V58.9119H27.1046V62.0938H29.6898C30.419 62.0938 31.0338 62.2131 31.5343 62.4517C32.0381 62.6903 32.4192 63.0268 32.6777 63.4609C32.9396 63.8951 33.0705 64.4072 33.0705 64.9972C33.0705 65.5871 32.9396 66.1075 32.6777 66.5582C32.4192 67.009 32.0381 67.362 31.5343 67.6172C31.0338 67.8724 30.419 68 29.6898 68H25.8716ZM27.1046 66.9261H29.6898C30.1538 66.9261 30.5466 66.8333 30.8681 66.6477C31.1929 66.4588 31.4382 66.2169 31.6039 65.9219C31.7729 65.6236 31.8574 65.3087 31.8574 64.9773C31.8574 64.4901 31.6702 64.0708 31.2956 63.7195C30.9211 63.3648 30.3858 63.1875 29.6898 63.1875H27.1046V66.9261ZM34.2649 68V66.9062H34.5433C34.772 66.9062 34.9626 66.8615 35.1151 66.772C35.2675 66.6792 35.3902 66.5185 35.483 66.2898C35.5791 66.0578 35.652 65.7363 35.7017 65.3253C35.7547 64.911 35.7929 64.384 35.8161 63.7443L35.9553 60.3636H41.0462V68H39.8729V61.4574H37.0689L36.9496 64.1818C36.9231 64.8082 36.8667 65.3601 36.7805 65.8374C36.6977 66.3113 36.5701 66.709 36.3977 67.0305C36.2287 67.352 36.0033 67.594 35.7216 67.7564C35.4399 67.9188 35.0869 68 34.6626 68H34.2649ZM45.446 68.179C44.9621 68.179 44.523 68.0878 44.1286 67.9055C43.7341 67.7199 43.4209 67.4531 43.1889 67.1051C42.9569 66.7538 42.8409 66.3295 42.8409 65.8324C42.8409 65.3949 42.9271 65.0402 43.0994 64.7685C43.2718 64.4934 43.5021 64.2779 43.7905 64.1222C44.0788 63.9664 44.397 63.8504 44.745 63.7741C45.0964 63.6946 45.4493 63.6316 45.804 63.5852C46.268 63.5256 46.6442 63.4808 46.9325 63.451C47.2242 63.4179 47.4363 63.3632 47.5689 63.2869C47.7048 63.2107 47.7727 63.0781 47.7727 62.8892V62.8494C47.7727 62.3589 47.6385 61.9777 47.37 61.706C47.1049 61.4342 46.7022 61.2983 46.1619 61.2983C45.6018 61.2983 45.1626 61.4209 44.8445 61.6662C44.5263 61.9115 44.3026 62.1733 44.1733 62.4517L43.0597 62.054C43.2585 61.59 43.5237 61.2287 43.8551 60.9702C44.1899 60.7083 44.5545 60.526 44.9489 60.4233C45.3466 60.3172 45.7377 60.2642 46.1222 60.2642C46.3674 60.2642 46.6491 60.294 46.9673 60.3537C47.2888 60.41 47.5987 60.5277 47.897 60.7067C48.1986 60.8857 48.4489 61.1558 48.6477 61.517C48.8466 61.8783 48.946 62.3622 48.946 62.9688V68H47.7727V66.9659H47.7131C47.6335 67.1316 47.5009 67.3089 47.3153 67.4979C47.1297 67.6868 46.8828 67.8475 46.5746 67.9801C46.2663 68.1127 45.8902 68.179 45.446 68.179ZM45.625 67.125C46.089 67.125 46.4801 67.0339 46.7983 66.8516C47.1198 66.6693 47.3617 66.4339 47.5241 66.1456C47.6899 65.8572 47.7727 65.554 47.7727 65.2358V64.1619C47.723 64.2216 47.6136 64.2763 47.4446 64.326C47.2789 64.3724 47.0866 64.4138 46.8679 64.4503C46.6525 64.4834 46.442 64.5133 46.2365 64.5398C46.0343 64.563 45.8703 64.5829 45.7443 64.5994C45.4394 64.6392 45.1544 64.7038 44.8892 64.7933C44.6274 64.8795 44.4152 65.0104 44.2528 65.1861C44.0938 65.3584 44.0142 65.5937 44.0142 65.892C44.0142 66.2997 44.165 66.608 44.4666 66.8168C44.7715 67.0223 45.1577 67.125 45.625 67.125ZM55.8006 60.3636V61.4574H52.2608V68H51.0875V60.3636H55.8006ZM60.2191 68.1591C59.5297 68.1591 58.9248 67.995 58.4045 67.6669C57.8874 67.3388 57.4831 66.8797 57.1914 66.2898C56.9031 65.6998 56.7589 65.0104 56.7589 64.2216C56.7589 63.4261 56.9031 62.7318 57.1914 62.1385C57.4831 61.5452 57.8874 61.0845 58.4045 60.7564C58.9248 60.4283 59.5297 60.2642 60.2191 60.2642C60.9085 60.2642 61.5117 60.4283 62.0288 60.7564C62.5491 61.0845 62.9535 61.5452 63.2418 62.1385C63.5335 62.7318 63.6793 63.4261 63.6793 64.2216C63.6793 65.0104 63.5335 65.6998 63.2418 66.2898C62.9535 66.8797 62.5491 67.3388 62.0288 67.6669C61.5117 67.995 60.9085 68.1591 60.2191 68.1591ZM60.2191 67.1051C60.7428 67.1051 61.1737 66.9709 61.5117 66.7024C61.8498 66.4339 62.1 66.081 62.2624 65.6435C62.4248 65.206 62.506 64.732 62.506 64.2216C62.506 63.7112 62.4248 63.2356 62.2624 62.7947C62.1 62.3539 61.8498 61.9976 61.5117 61.7259C61.1737 61.4541 60.7428 61.3182 60.2191 61.3182C59.6954 61.3182 59.2646 61.4541 58.9265 61.7259C58.5884 61.9976 58.3382 62.3539 58.1758 62.7947C58.0134 63.2356 57.9322 63.7112 57.9322 64.2216C57.9322 64.732 58.0134 65.206 58.1758 65.6435C58.3382 66.081 58.5884 66.4339 58.9265 66.7024C59.2646 66.9709 59.6954 67.1051 60.2191 67.1051ZM64.655 70.1875V66.9062H65.2914C65.4471 66.7438 65.5814 66.5682 65.6941 66.3793C65.8068 66.1903 65.9045 65.9666 65.9874 65.7081C66.0736 65.4463 66.1465 65.1281 66.2061 64.7536C66.2658 64.3757 66.3188 63.92 66.3652 63.3864L66.6238 60.3636H71.476V66.9062H72.6493V70.1875H71.476V68H65.8283V70.1875H64.655ZM66.6238 66.9062H70.3027V61.4574H67.7175L67.5186 63.3864C67.4358 64.1851 67.333 64.8828 67.2104 65.4794C67.0878 66.076 66.8922 66.5516 66.6238 66.9062ZM74.2067 68V60.3636H75.38V68H74.2067ZM74.8033 59.0909C74.5746 59.0909 74.3774 59.013 74.2116 58.8572C74.0492 58.7015 73.968 58.5142 73.968 58.2955C73.968 58.0767 74.0492 57.8894 74.2116 57.7337C74.3774 57.5779 74.5746 57.5 74.8033 57.5C75.032 57.5 75.2275 57.5779 75.3899 57.7337C75.5556 57.8894 75.6385 58.0767 75.6385 58.2955C75.6385 58.5142 75.5556 58.7015 75.3899 58.8572C75.2275 59.013 75.032 59.0909 74.8033 59.0909ZM78.7022 66.2699L82.3812 60.3636H83.7335V68H82.5602V62.0938L78.9011 68H77.5289V60.3636H78.7022V66.2699ZM81.6056 57.8182H82.6994C82.6994 58.3551 82.5138 58.7943 82.1426 59.1357C81.7714 59.477 81.2676 59.6477 80.6312 59.6477C80.0048 59.6477 79.506 59.477 79.1348 59.1357C78.7669 58.7943 78.5829 58.3551 78.5829 57.8182H79.6767C79.6767 58.0767 79.7479 58.3037 79.8904 58.4993C80.0363 58.6948 80.2832 58.7926 80.6312 58.7926C80.9792 58.7926 81.2278 58.6948 81.377 58.4993C81.5294 58.3037 81.6056 58.0767 81.6056 57.8182ZM90.9933 63.6449V64.7386H86.7773V63.6449H90.9933ZM87.0558 60.3636V68H85.8825V60.3636H87.0558ZM91.8881 60.3636V68H90.7148V60.3636H91.8881ZM96.2781 68.179C95.7942 68.179 95.355 68.0878 94.9606 67.9055C94.5662 67.7199 94.253 67.4531 94.021 67.1051C93.7889 66.7538 93.6729 66.3295 93.6729 65.8324C93.6729 65.3949 93.7591 65.0402 93.9315 64.7685C94.1038 64.4934 94.3342 64.2779 94.6225 64.1222C94.9109 63.9664 95.229 63.8504 95.5771 63.7741C95.9284 63.6946 96.2814 63.6316 96.636 63.5852C97.1 63.5256 97.4762 63.4808 97.7646 63.451C98.0562 63.4179 98.2683 63.3632 98.4009 63.2869C98.5368 63.2107 98.6048 63.0781 98.6048 62.8892V62.8494C98.6048 62.3589 98.4705 61.9777 98.2021 61.706C97.9369 61.4342 97.5342 61.2983 96.994 61.2983C96.4338 61.2983 95.9947 61.4209 95.6765 61.6662C95.3583 61.9115 95.1346 62.1733 95.0053 62.4517L93.8917 62.054C94.0906 61.59 94.3557 61.2287 94.6871 60.9702C95.0219 60.7083 95.3865 60.526 95.7809 60.4233C96.1786 60.3172 96.5697 60.2642 96.9542 60.2642C97.1995 60.2642 97.4812 60.294 97.7994 60.3537C98.1209 60.41 98.4308 60.5277 98.729 60.7067C99.0307 60.8857 99.2809 61.1558 99.4798 61.517C99.6786 61.8783 99.7781 62.3622 99.7781 62.9688V68H98.6048V66.9659H98.5451C98.4656 67.1316 98.333 67.3089 98.1474 67.4979C97.9618 67.6868 97.7148 67.8475 97.4066 67.9801C97.0984 68.1127 96.7222 68.179 96.2781 68.179ZM96.457 67.125C96.921 67.125 97.3121 67.0339 97.6303 66.8516C97.9518 66.6693 98.1938 66.4339 98.3562 66.1456C98.5219 65.8572 98.6048 65.554 98.6048 65.2358V64.1619C98.555 64.2216 98.4457 64.2763 98.2766 64.326C98.1109 64.3724 97.9187 64.4138 97.6999 64.4503C97.4845 64.4834 97.274 64.5133 97.0685 64.5398C96.8664 64.563 96.7023 64.5829 96.5763 64.5994C96.2714 64.6392 95.9864 64.7038 95.7212 64.7933C95.4594 64.8795 95.2473 65.0104 95.0849 65.1861C94.9258 65.3584 94.8462 65.5937 94.8462 65.892C94.8462 66.2997 94.997 66.608 95.2987 66.8168C95.6036 67.0223 95.9897 67.125 96.457 67.125ZM105.857 68V60.3636H111.863V68H110.689V61.4574H107.03V68H105.857ZM113.329 68V66.9062H113.608C113.836 66.9062 114.027 66.8615 114.18 66.772C114.332 66.6792 114.455 66.5185 114.547 66.2898C114.644 66.0578 114.716 65.7363 114.766 65.3253C114.819 64.911 114.857 64.384 114.881 63.7443L115.02 60.3636H120.111V68H118.937V61.4574H116.133L116.014 64.1818C115.988 64.8082 115.931 65.3601 115.845 65.8374C115.762 66.3113 115.635 66.709 115.462 67.0305C115.293 67.352 115.068 67.594 114.786 67.7564C114.504 67.9188 114.151 68 113.727 68H113.329ZM124.51 68.179C124.027 68.179 123.587 68.0878 123.193 67.9055C122.799 67.7199 122.485 67.4531 122.253 67.1051C122.021 66.7538 121.905 66.3295 121.905 65.8324C121.905 65.3949 121.992 65.0402 122.164 64.7685C122.336 64.4934 122.567 64.2779 122.855 64.1222C123.143 63.9664 123.461 63.8504 123.809 63.7741C124.161 63.6946 124.514 63.6316 124.868 63.5852C125.332 63.5256 125.709 63.4808 125.997 63.451C126.289 63.4179 126.501 63.3632 126.633 63.2869C126.769 63.2107 126.837 63.0781 126.837 62.8892V62.8494C126.837 62.3589 126.703 61.9777 126.434 61.706C126.169 61.4342 125.767 61.2983 125.226 61.2983C124.666 61.2983 124.227 61.4209 123.909 61.6662C123.591 61.9115 123.367 62.1733 123.238 62.4517L122.124 62.054C122.323 61.59 122.588 61.2287 122.92 60.9702C123.254 60.7083 123.619 60.526 124.013 60.4233C124.411 60.3172 124.802 60.2642 125.187 60.2642C125.432 60.2642 125.714 60.294 126.032 60.3537C126.353 60.41 126.663 60.5277 126.961 60.7067C127.263 60.8857 127.513 61.1558 127.712 61.517C127.911 61.8783 128.01 62.3622 128.01 62.9688V68H126.837V66.9659H126.778C126.698 67.1316 126.565 67.3089 126.38 67.4979C126.194 67.6868 125.947 67.8475 125.639 67.9801C125.331 68.1127 124.955 68.179 124.51 68.179ZM124.689 67.125C125.153 67.125 125.545 67.0339 125.863 66.8516C126.184 66.6693 126.426 66.4339 126.589 66.1456C126.754 65.8572 126.837 65.554 126.837 65.2358V64.1619C126.787 64.2216 126.678 64.2763 126.509 64.326C126.343 64.3724 126.151 64.4138 125.932 64.4503C125.717 64.4834 125.506 64.5133 125.301 64.5398C125.099 64.563 124.935 64.5829 124.809 64.5994C124.504 64.6392 124.219 64.7038 123.954 64.7933C123.692 64.8795 123.48 65.0104 123.317 65.1861C123.158 65.3584 123.079 65.5937 123.079 65.892C123.079 66.2997 123.229 66.608 123.531 66.8168C123.836 67.0223 124.222 67.125 124.689 67.125ZM129.113 61.4574V60.3636H135.317V61.4574H132.812V68H131.638V61.4574H129.113ZM139.735 70.6051V57.8182H140.908V70.6051H139.735ZM139.735 68.1591C139.218 68.1591 138.747 68.0663 138.323 67.8807C137.899 67.6918 137.534 67.425 137.229 67.0803C136.924 66.7322 136.689 66.3163 136.523 65.8324C136.357 65.3485 136.275 64.8116 136.275 64.2216C136.275 63.625 136.357 63.0848 136.523 62.6009C136.689 62.1136 136.924 61.696 137.229 61.348C137.534 61 137.899 60.7332 138.323 60.5476C138.747 60.3587 139.218 60.2642 139.735 60.2642H140.093V68.1591H139.735ZM139.735 67.1051H139.934V61.3182H139.735C139.344 61.3182 139.004 61.3977 138.716 61.5568C138.427 61.7126 138.189 61.9264 138 62.1982C137.814 62.4666 137.675 62.7749 137.582 63.1229C137.493 63.4709 137.448 63.8371 137.448 64.2216C137.448 64.732 137.529 65.206 137.691 65.6435C137.854 66.081 138.104 66.4339 138.442 66.7024C138.78 66.9709 139.211 67.1051 139.735 67.1051ZM140.908 68.1591H140.55V60.2642H140.908C141.425 60.2642 141.896 60.3587 142.32 60.5476C142.744 60.7332 143.109 61 143.414 61.348C143.719 61.696 143.954 62.1136 144.12 62.6009C144.285 63.0848 144.368 63.625 144.368 64.2216C144.368 64.8116 144.285 65.3485 144.12 65.8324C143.954 66.3163 143.719 66.7322 143.414 67.0803C143.109 67.425 142.744 67.6918 142.32 67.8807C141.896 68.0663 141.425 68.1591 140.908 68.1591ZM140.908 67.1051C141.302 67.1051 141.642 67.0289 141.927 66.8764C142.216 66.7206 142.453 66.5085 142.638 66.2401C142.827 65.9683 142.966 65.66 143.056 65.3153C143.149 64.9673 143.195 64.6027 143.195 64.2216C143.195 63.7112 143.114 63.2356 142.951 62.7947C142.789 62.3539 142.539 61.9976 142.201 61.7259C141.863 61.4541 141.432 61.3182 140.908 61.3182H140.709V67.1051H140.908ZM149.264 68.1591C148.575 68.1591 147.97 67.995 147.449 67.6669C146.932 67.3388 146.528 66.8797 146.236 66.2898C145.948 65.6998 145.804 65.0104 145.804 64.2216C145.804 63.4261 145.948 62.7318 146.236 62.1385C146.528 61.5452 146.932 61.0845 147.449 60.7564C147.97 60.4283 148.575 60.2642 149.264 60.2642C149.953 60.2642 150.557 60.4283 151.074 60.7564C151.594 61.0845 151.998 61.5452 152.287 62.1385C152.578 62.7318 152.724 63.4261 152.724 64.2216C152.724 65.0104 152.578 65.6998 152.287 66.2898C151.998 66.8797 151.594 67.3388 151.074 67.6669C150.557 67.995 149.953 68.1591 149.264 68.1591ZM149.264 67.1051C149.788 67.1051 150.219 66.9709 150.557 66.7024C150.895 66.4339 151.145 66.081 151.307 65.6435C151.47 65.206 151.551 64.732 151.551 64.2216C151.551 63.7112 151.47 63.2356 151.307 62.7947C151.145 62.3539 150.895 61.9976 150.557 61.7259C150.219 61.4541 149.788 61.3182 149.264 61.3182C148.74 61.3182 148.309 61.4541 147.971 61.7259C147.633 61.9976 147.383 62.3539 147.221 62.7947C147.058 63.2356 146.977 63.7112 146.977 64.2216C146.977 64.732 147.058 65.206 147.221 65.6435C147.383 66.081 147.633 66.4339 147.971 66.7024C148.309 66.9709 148.74 67.1051 149.264 67.1051ZM154.515 70.8636V60.3636H155.649V61.5767H155.788C155.874 61.4441 155.993 61.2751 156.146 61.0696C156.302 60.8608 156.524 60.6752 156.812 60.5128C157.104 60.3471 157.498 60.2642 157.995 60.2642C158.638 60.2642 159.205 60.425 159.696 60.7464C160.186 61.0679 160.569 61.5237 160.844 62.1136C161.119 62.7036 161.257 63.3996 161.257 64.2017C161.257 65.0104 161.119 65.7114 160.844 66.3047C160.569 66.8946 160.188 67.352 159.701 67.6768C159.213 67.9983 158.652 68.1591 158.015 68.1591C157.525 68.1591 157.132 68.0779 156.837 67.9155C156.542 67.7498 156.315 67.5625 156.156 67.3537C155.997 67.1416 155.874 66.9659 155.788 66.8267H155.689V70.8636H154.515ZM155.669 64.1818C155.669 64.7585 155.753 65.2673 155.922 65.7081C156.091 66.1456 156.338 66.4886 156.663 66.7372C156.988 66.9825 157.386 67.1051 157.856 67.1051C158.347 67.1051 158.756 66.9759 159.084 66.7173C159.416 66.4555 159.664 66.1042 159.83 65.6634C159.999 65.2192 160.083 64.7254 160.083 64.1818C160.083 63.6449 160.001 63.161 159.835 62.7301C159.672 62.2959 159.426 61.9529 159.094 61.701C158.766 61.4458 158.353 61.3182 157.856 61.3182C157.379 61.3182 156.978 61.4392 156.653 61.6811C156.328 61.9197 156.083 62.2545 155.917 62.6854C155.752 63.1129 155.669 63.6117 155.669 64.1818ZM167.223 66.4091L169.887 60.3636H171.001L167.7 68H166.745L163.504 60.3636H164.598L167.223 66.4091ZM164.22 60.3636V68H163.047V60.3636H164.22ZM170.225 68V60.3636H171.399V68H170.225ZM175.794 68.179C175.31 68.179 174.871 68.0878 174.476 67.9055C174.082 67.7199 173.769 67.4531 173.537 67.1051C173.305 66.7538 173.189 66.3295 173.189 65.8324C173.189 65.3949 173.275 65.0402 173.447 64.7685C173.619 64.4934 173.85 64.2779 174.138 64.1222C174.426 63.9664 174.745 63.8504 175.093 63.7741C175.444 63.6946 175.797 63.6316 176.152 63.5852C176.616 63.5256 176.992 63.4808 177.28 63.451C177.572 63.4179 177.784 63.3632 177.917 63.2869C178.052 63.2107 178.12 63.0781 178.12 62.8892V62.8494C178.12 62.3589 177.986 61.9777 177.718 61.706C177.453 61.4342 177.05 61.2983 176.51 61.2983C175.949 61.2983 175.51 61.4209 175.192 61.6662C174.874 61.9115 174.65 62.1733 174.521 62.4517L173.407 62.054C173.606 61.59 173.871 61.2287 174.203 60.9702C174.538 60.7083 174.902 60.526 175.297 60.4233C175.694 60.3172 176.085 60.2642 176.47 60.2642C176.715 60.2642 176.997 60.294 177.315 60.3537C177.636 60.41 177.946 60.5277 178.245 60.7067C178.546 60.8857 178.797 61.1558 178.995 61.517C179.194 61.8783 179.294 62.3622 179.294 62.9688V68H178.12V66.9659H178.061C177.981 67.1316 177.849 67.3089 177.663 67.4979C177.477 67.6868 177.23 67.8475 176.922 67.9801C176.614 68.1127 176.238 68.179 175.794 68.179ZM175.973 67.125C176.437 67.125 176.828 67.0339 177.146 66.8516C177.467 66.6693 177.709 66.4339 177.872 66.1456C178.038 65.8572 178.12 65.554 178.12 65.2358V64.1619C178.071 64.2216 177.961 64.2763 177.792 64.326C177.627 64.3724 177.434 64.4138 177.216 64.4503C177 64.4834 176.79 64.5133 176.584 64.5398C176.382 64.563 176.218 64.5829 176.092 64.5994C175.787 64.6392 175.502 64.7038 175.237 64.7933C174.975 64.8795 174.763 65.0104 174.6 65.1861C174.441 65.3584 174.362 65.5937 174.362 65.892C174.362 66.2997 174.513 66.608 174.814 66.8168C175.119 67.0223 175.505 67.125 175.973 67.125Z" fill="#1C1C1C"/>
<path d="M190.5 67.175L189.775 66.515C187.2 64.18 185.5 62.635 185.5 60.75C185.5 59.205 186.71 58 188.25 58C189.12 58 189.955 58.405 190.5 59.04C191.045 58.405 191.88 58 192.75 58C194.29 58 195.5 59.205 195.5 60.75C195.5 62.635 193.8 64.18 191.225 66.515L190.5 67.175Z" fill="#FFC107"/>
</svg>
