<svg width="205" height="70" viewBox="0 0 205 70" fill="none" xmlns="http://www.w3.org/2000/svg">
<path d="M29.4922 15.1289V16.4766C29.4271 16.4766 29.3359 16.4701 29.2188 16.457C29.1016 16.444 29.0169 16.4375 28.9648 16.4375C27.9622 16.4375 27.2786 16.7565 26.9141 17.3945C26.5495 18.0065 26.3672 19.3542 26.3672 21.4375C26.3672 21.6328 26.3672 21.9193 26.3672 22.2969C26.3672 22.6615 26.3737 23.1172 26.3867 23.6641C26.3997 24.2109 26.4062 24.7122 26.4062 25.168C26.4062 25.6107 26.4062 26.0078 26.4062 26.3594V31.5547C26.4062 31.9062 26.4062 32.3099 26.4062 32.7656C26.4062 33.2083 26.3997 33.7096 26.3867 34.2695C26.3737 34.8164 26.3672 35.2786 26.3672 35.6562C26.3672 36.0208 26.3672 36.3073 26.3672 36.5156C26.3672 38.6641 26.5495 40.0573 26.9141 40.6953C27.2917 41.3464 27.9753 41.6719 28.9648 41.6719C29.1471 41.6719 29.2839 41.6719 29.375 41.6719C29.4792 41.6589 29.5703 41.6523 29.6484 41.6523V43C28.6198 42.9479 27.6628 42.9089 26.7773 42.8828C25.9049 42.8568 25.1693 42.8438 24.5703 42.8438C23.8672 42.8438 23.0794 42.8568 22.207 42.8828C21.3346 42.9089 20.3906 42.9479 19.375 43V41.6328C19.4531 41.6328 19.5703 41.6393 19.7266 41.6523C19.8828 41.6654 19.9935 41.6719 20.0586 41.6719C21.1133 41.6719 21.8294 41.3789 22.207 40.793C22.5846 40.194 22.7734 38.7812 22.7734 36.5547V31.8086L22.7148 17.4922C21.3737 17.4531 20.1107 17.4271 18.9258 17.4141C17.7409 17.401 16.5951 17.388 15.4883 17.375C14.3945 17.388 13.2552 17.401 12.0703 17.4141C10.8984 17.4271 9.64193 17.4531 8.30078 17.4922L8.24219 31.8086V36.125C8.24219 38.612 8.43099 40.1615 8.80859 40.7734C9.17318 41.3724 9.90234 41.6719 10.9961 41.6719C11.0612 41.6719 11.1719 41.6654 11.3281 41.6523C11.4844 41.6393 11.6016 41.6328 11.6797 41.6328V43C10.6641 42.9479 9.72005 42.9089 8.84766 42.8828C7.97526 42.8568 7.1875 42.8438 6.48438 42.8438C5.88542 42.8438 5.14974 42.8568 4.27734 42.8828C3.41797 42.9089 2.46094 42.9479 1.40625 43V41.6523C1.48438 41.6523 1.56901 41.6589 1.66016 41.6719C1.76432 41.6719 1.90104 41.6719 2.07031 41.6719C3.07292 41.6719 3.76302 41.3464 4.14062 40.6953C4.50521 40.0573 4.6875 38.6641 4.6875 36.5156C4.6875 36.3073 4.6875 36.0208 4.6875 35.6562C4.6875 35.2786 4.68099 34.8164 4.66797 34.2695C4.65495 33.7096 4.64844 33.2083 4.64844 32.7656C4.64844 32.3099 4.64844 31.9062 4.64844 31.5547V26.3594C4.64844 26.0339 4.64844 25.6628 4.64844 25.2461C4.64844 24.8294 4.65495 24.3737 4.66797 23.8789C4.68099 23.3711 4.6875 22.9479 4.6875 22.6094C4.6875 22.2578 4.6875 21.9909 4.6875 21.8086C4.6875 19.569 4.4987 18.1107 4.12109 17.4336C3.74349 16.7695 3.04688 16.4375 2.03125 16.4375C1.99219 16.4375 1.91406 16.444 1.79688 16.457C1.67969 16.4701 1.58854 16.4766 1.52344 16.4766V15.1289C3.04688 15.1549 4.45964 15.181 5.76172 15.207C7.07682 15.2331 8.29427 15.2461 9.41406 15.2461C10.5208 15.2461 11.582 15.2526 12.5977 15.2656C13.6133 15.2786 14.5768 15.2852 15.4883 15.2852C16.3997 15.2852 17.3568 15.2852 18.3594 15.2852C19.362 15.2721 20.4232 15.2591 21.543 15.2461C23.7826 15.2331 26.4193 15.194 29.4531 15.1289H29.4922ZM38.8672 25.1484C38.776 27.7786 38.7109 30.0117 38.6719 31.8477C38.6328 33.6836 38.6133 35.1354 38.6133 36.2031V38.2734C38.6133 39.7969 38.7565 40.7474 39.043 41.125C39.3294 41.5156 39.8893 41.7109 40.7227 41.7109C40.8008 41.7109 40.9049 41.7044 41.0352 41.6914C41.1654 41.6784 41.263 41.6719 41.3281 41.6719V43C40.2214 42.9219 39.3294 42.8698 38.6523 42.8438C37.9753 42.8177 37.4023 42.8047 36.9336 42.8047C36.7253 42.8047 36.4844 42.8112 36.2109 42.8242C35.9505 42.8242 35.6576 42.8307 35.332 42.8438C35.0065 42.8568 34.6029 42.8763 34.1211 42.9023C33.6523 42.9284 33.0924 42.9609 32.4414 43V41.6328H32.9297C34.5443 41.6328 35.3581 40.0443 35.3711 36.8672V35.793L35.4492 30.9688C35.4492 30.7865 35.4492 30.5846 35.4492 30.3633C35.4492 30.1419 35.4557 29.901 35.4688 29.6406C35.4818 29.3802 35.4883 29.1589 35.4883 28.9766C35.4883 28.7943 35.4883 28.6576 35.4883 28.5664C35.4883 27.4987 35.3841 26.8021 35.1758 26.4766C34.9805 26.138 34.6159 25.9688 34.082 25.9688C33.9779 25.9688 33.8216 25.9818 33.6133 26.0078C33.418 26.0208 33.2031 26.0404 32.9688 26.0664L32.7734 24.8359C34.7917 24.4453 36.8424 23.8464 38.9258 23.0391L38.8672 25.1484ZM37.1289 14.7188L38.4375 15.6953C38.776 15.9557 39.0234 16.2161 39.1797 16.4766C39.349 16.724 39.4336 16.9909 39.4336 17.2773C39.4336 17.5638 39.3685 17.8112 39.2383 18.0195C39.1081 18.2148 38.8672 18.4492 38.5156 18.7227L37.1289 19.7578L35.8398 18.7617C35.4883 18.4753 35.2279 18.2148 35.0586 17.9805C34.9023 17.7331 34.8242 17.4727 34.8242 17.1992C34.8242 16.9388 34.8828 16.7044 35 16.4961C35.1302 16.2878 35.3841 16.0469 35.7617 15.7734L37.1289 14.7188ZM46.9922 38.7227C47.6562 37.4206 48.2096 35.9427 48.6523 34.2891C49.0951 32.6224 49.4336 30.7279 49.668 28.6055C49.707 28.2799 49.7266 27.9219 49.7266 27.5312C49.7266 27.1276 49.668 26.7565 49.5508 26.418C49.4336 26.0794 49.2318 25.793 48.9453 25.5586C48.6589 25.3242 48.2422 25.207 47.6953 25.207H47.2461V23.8398C47.8841 23.8659 48.444 23.8919 48.9258 23.918C49.4206 23.931 49.9089 23.944 50.3906 23.957C50.8854 23.9701 51.4062 23.9831 51.9531 23.9961C52.513 24.0091 53.1706 24.0156 53.9258 24.0156C54.694 24.0156 55.4948 24.0156 56.3281 24.0156C57.1745 24.0026 58.0078 23.9896 58.8281 23.9766C59.6615 23.9635 60.4622 23.944 61.2305 23.918C62.0117 23.8919 62.7214 23.8659 63.3594 23.8398V25.207H62.9102C62.3503 25.207 61.9141 25.3307 61.6016 25.5781C61.3021 25.8255 61.0807 26.1706 60.9375 26.6133C60.8073 27.043 60.7292 27.5573 60.7031 28.1562C60.6771 28.7422 60.6641 29.3802 60.6641 30.0703V34.7383L60.7227 39.5234C60.7227 39.888 60.7617 40.181 60.8398 40.4023C60.918 40.6107 61.0221 40.7734 61.1523 40.8906C61.2826 40.9948 61.4388 41.0599 61.6211 41.0859C61.8034 41.112 61.9922 41.112 62.1875 41.0859L63.9648 40.9297C63.8867 42.0365 63.8281 42.9935 63.7891 43.8008C63.75 44.6211 63.724 45.3438 63.7109 45.9688C63.6979 46.5938 63.6914 47.1471 63.6914 47.6289C63.7044 48.1237 63.724 48.5924 63.75 49.0352L62.3242 49.1914C62.2721 47.9805 62.1354 47.0039 61.9141 46.2617C61.6927 45.5326 61.4258 44.9531 61.1133 44.5234C60.8008 44.0938 60.4557 43.7812 60.0781 43.5859C59.7135 43.4036 59.349 43.2604 58.9844 43.1562C58.8281 43.1042 58.6393 43.0586 58.418 43.0195C58.2096 42.9805 57.9036 42.9479 57.5 42.9219C57.0964 42.8828 56.569 42.8568 55.918 42.8438C55.2669 42.8177 54.4206 42.8047 53.3789 42.8047C52.3372 42.8047 51.4974 42.8177 50.8594 42.8438C50.2344 42.8568 49.7396 42.8828 49.375 42.9219C49.0104 42.9479 48.737 42.9805 48.5547 43.0195C48.3724 43.0586 48.2161 43.1042 48.0859 43.1562C47.8125 43.2604 47.513 43.3971 47.1875 43.5664C46.862 43.7357 46.556 44.0221 46.2695 44.4258C45.9831 44.8424 45.7292 45.4089 45.5078 46.125C45.2995 46.8542 45.1693 47.8242 45.1172 49.0352L43.6914 49.1914C43.7044 48.7487 43.7174 48.2669 43.7305 47.7461C43.7435 47.2383 43.7435 46.6523 43.7305 45.9883C43.7174 45.3372 43.6914 44.5885 43.6523 43.7422C43.6133 42.9089 43.5547 41.9388 43.4766 40.832L44.8047 40.9883C45.2083 41.0404 45.5794 40.8646 45.918 40.4609C46.2565 40.0443 46.6146 39.4648 46.9922 38.7227ZM47.8906 41.0078C48.6458 41.0469 49.4727 41.0729 50.3711 41.0859C51.2695 41.099 52.1354 41.1055 52.9688 41.1055C53.5938 41.1055 54.2969 41.099 55.0781 41.0859C55.8594 41.0729 56.6406 41.0469 57.4219 41.0078L57.4609 31.8477V25.8711C57.2396 25.8581 56.9792 25.8451 56.6797 25.832C56.3802 25.806 56.0742 25.793 55.7617 25.793C55.4492 25.7799 55.1497 25.7734 54.8633 25.7734C54.5898 25.7604 54.362 25.7539 54.1797 25.7539C53.8021 25.7539 53.4375 25.7669 53.0859 25.793C52.7344 25.806 52.3372 25.832 51.8945 25.8711C51.7773 27.1602 51.6276 28.4492 51.4453 29.7383C51.276 31.0273 51.0417 32.3034 50.7422 33.5664C50.4427 34.8294 50.0586 36.0859 49.5898 37.3359C49.1341 38.5729 48.5677 39.7969 47.8906 41.0078ZM66.9531 23.5664C67.5391 23.7878 68.3919 23.918 69.5117 23.957C70.6445 23.9831 72.0964 23.9961 73.8672 23.9961H77.1094C77.6693 23.9961 78.2682 23.9961 78.9062 23.9961C79.5443 23.9831 80.1823 23.9635 80.8203 23.9375C81.4583 23.8984 82.0768 23.8398 82.6758 23.7617C83.2747 23.6836 83.8151 23.5729 84.2969 23.4297C84.3099 24.1849 84.3359 25.0768 84.375 26.1055C84.4271 27.1211 84.6029 28.2995 84.9023 29.6406L83.5742 29.8945C83.3529 28.957 83.1055 28.2214 82.832 27.6875C82.5716 27.1406 82.2331 26.7305 81.8164 26.457C81.4128 26.1706 80.918 25.9948 80.332 25.9297C79.7461 25.8516 79.0169 25.8125 78.1445 25.8125H77.1484L77.1094 31.3984C77.0964 32.8568 77.0898 34.1263 77.0898 35.207C77.1029 36.2747 77.1354 37.1862 77.1875 37.9414C77.2396 38.6966 77.3177 39.3216 77.4219 39.8164C77.5391 40.2982 77.7018 40.6758 77.9102 40.9492C78.1185 41.2227 78.3789 41.4115 78.6914 41.5156C79.0039 41.6198 79.388 41.6719 79.8438 41.6719H80.3516V43C79.8958 42.974 79.2513 42.9349 78.418 42.8828C77.5977 42.8307 76.6211 42.8047 75.4883 42.8047C74.3294 42.8047 73.3659 42.8307 72.5977 42.8828C71.8294 42.9349 71.1719 42.974 70.625 43V41.6719H71.1133C71.543 41.6719 71.9271 41.6263 72.2656 41.5352C72.6172 41.444 72.9102 41.1966 73.1445 40.793C73.3789 40.3763 73.5547 39.7448 73.6719 38.8984C73.8021 38.0391 73.8672 36.8477 73.8672 35.3242V31.3984L73.8281 25.8125H72.9883C72.207 25.8125 71.5039 25.8516 70.8789 25.9297C70.2669 25.9948 69.7266 26.1641 69.2578 26.4375C68.7891 26.7109 68.3919 27.1211 68.0664 27.668C67.7409 28.2018 67.487 28.944 67.3047 29.8945L66.0938 29.6406C66.1979 29.224 66.2891 28.8073 66.3672 28.3906C66.4453 27.974 66.5169 27.5312 66.582 27.0625C66.6602 26.5938 66.7253 26.0794 66.7773 25.5195C66.8424 24.9466 66.901 24.2956 66.9531 23.5664ZM92.3438 40.168C93.125 40.5456 93.9062 40.8385 94.6875 41.0469C95.4688 41.2552 96.2109 41.3594 96.9141 41.3594C98.8411 41.3594 100.352 40.7279 101.445 39.4648C102.552 38.1888 103.105 36.418 103.105 34.1523C103.105 31.7044 102.565 29.7513 101.484 28.293C100.404 26.8216 98.9844 26.0859 97.2266 26.0859C96.4714 26.0859 95.6771 26.2096 94.8438 26.457C94.0234 26.7044 93.2292 27.056 92.4609 27.5117C92.4089 29.4128 92.3698 31.2096 92.3438 32.9023C92.3177 34.5951 92.3047 36.1445 92.3047 37.5508C92.3047 37.7982 92.3112 38.2148 92.3242 38.8008C92.3372 39.3737 92.3438 39.8294 92.3438 40.168ZM92.6172 22.8047L92.4609 25.9297C93.6458 25.1094 94.7461 24.5104 95.7617 24.1328C96.7904 23.7552 97.7995 23.5664 98.7891 23.5664C100.938 23.5664 102.734 24.4258 104.18 26.1445C105.625 27.8503 106.348 29.9727 106.348 32.5117C106.348 35.819 105.423 38.4102 103.574 40.2852C101.738 42.1471 99.1927 43.0781 95.9375 43.0781C95.3385 43.0781 94.7331 43.0195 94.1211 42.9023C93.5091 42.7721 92.9036 42.5898 92.3047 42.3555V49.3281C92.3047 50.8646 93.431 51.6458 95.6836 51.6719H95.7031V53.0781C94.8438 53.013 94.0104 52.9609 93.2031 52.9219C92.4089 52.8958 91.6536 52.8828 90.9375 52.8828C90.5078 52.8828 89.9479 52.8958 89.2578 52.9219C88.5677 52.9479 87.5326 53 86.1523 53.0781V51.6719C86.9987 51.6719 87.5716 51.6263 87.8711 51.5352C88.1706 51.457 88.3984 51.3073 88.5547 51.0859C88.8932 50.5 89.0755 47.8438 89.1016 43.1172C89.1016 42.1406 89.1016 41.3789 89.1016 40.832L89.1406 36.3984V30.9297V29.9531C89.1406 28.3385 89.043 27.3294 88.8477 26.9258C88.6654 26.5221 88.3008 26.3203 87.7539 26.3203C87.6237 26.3203 87.4674 26.3333 87.2852 26.3594C87.1029 26.3854 86.9076 26.4245 86.6992 26.4766L86.5039 25.2852C87.6107 24.9727 88.6654 24.6146 89.668 24.2109C90.6836 23.7943 91.6667 23.3255 92.6172 22.8047ZM125.254 29.7578C124.915 30.0703 124.57 30.3958 124.219 30.7344C123.867 31.0599 123.496 31.4115 123.105 31.7891L119.062 35.6562C118.424 36.2552 117.819 36.8281 117.246 37.375C116.673 37.9219 116.094 38.4818 115.508 39.0547C115.508 39.4062 115.521 39.7383 115.547 40.0508C115.573 40.3633 115.645 40.6367 115.762 40.8711C115.892 41.1055 116.087 41.2943 116.348 41.4375C116.621 41.5677 116.999 41.6328 117.48 41.6328H117.988V43C117.324 42.9479 116.647 42.9023 115.957 42.8633C115.28 42.8242 114.564 42.8047 113.809 42.8047C113.145 42.8047 112.467 42.8242 111.777 42.8633C111.1 42.8893 110.312 42.9349 109.414 43V41.6328H109.863C110.436 41.6328 110.885 41.4635 111.211 41.125C111.536 40.7734 111.777 40.3503 111.934 39.8555C112.103 39.3477 112.207 38.8138 112.246 38.2539C112.285 37.681 112.305 37.1797 112.305 36.75V30.0703C112.305 27.9219 112.135 26.5677 111.797 26.0078C111.628 25.7214 111.387 25.5195 111.074 25.4023C110.775 25.2721 110.384 25.207 109.902 25.207H109.453V23.8398C110.586 23.918 111.471 23.9701 112.109 23.9961C112.747 24.0221 113.262 24.0352 113.652 24.0352C114.069 24.0352 114.596 24.0221 115.234 23.9961C115.885 23.9701 116.771 23.918 117.891 23.8398V25.207H117.344C117.083 25.207 116.836 25.2852 116.602 25.4414C116.367 25.5846 116.165 25.7799 115.996 26.0273C115.671 26.5091 115.508 27.5378 115.508 29.1133V36.5938C115.885 36.2422 116.263 35.8906 116.641 35.5391C117.031 35.1745 117.422 34.8034 117.812 34.4258L122.051 30.4219L125.234 27.3164C125.208 26.7695 125.137 26.3529 125.02 26.0664C124.902 25.7799 124.746 25.5716 124.551 25.4414C124.368 25.3112 124.154 25.2396 123.906 25.2266C123.672 25.2135 123.424 25.207 123.164 25.207H122.871V23.8398C123.991 23.918 124.87 23.9701 125.508 23.9961C126.159 24.0221 126.693 24.0352 127.109 24.0352C127.5 24.0352 128.014 24.0221 128.652 23.9961C129.29 23.9701 130.124 23.918 131.152 23.8398V25.207H130.703C130.143 25.207 129.707 25.3307 129.395 25.5781C129.095 25.8255 128.874 26.1706 128.73 26.6133C128.6 27.043 128.522 27.5573 128.496 28.1562C128.47 28.7422 128.457 29.3802 128.457 30.0703V37.7656C128.457 38.2995 128.47 38.8008 128.496 39.2695C128.522 39.7383 128.6 40.1484 128.73 40.5C128.874 40.8516 129.095 41.1315 129.395 41.3398C129.707 41.5352 130.143 41.6328 130.703 41.6328H131.152V43C130.124 42.9219 129.251 42.8698 128.535 42.8438C127.819 42.8177 127.266 42.8047 126.875 42.8047C126.536 42.8047 126.204 42.8112 125.879 42.8242C125.566 42.8242 125.234 42.8372 124.883 42.8633C124.544 42.8763 124.173 42.8958 123.77 42.9219C123.379 42.9479 122.943 42.974 122.461 43V41.6328H122.969C123.711 41.6328 124.277 41.2422 124.668 40.4609C125.059 39.6667 125.254 38.5013 125.254 36.9648V29.7578ZM150.508 28.8008C150.703 28.3711 150.911 27.9349 151.133 27.4922C151.354 27.0365 151.549 26.6003 151.719 26.1836C151.901 25.7539 152.051 25.3568 152.168 24.9922C152.285 24.6146 152.344 24.2826 152.344 23.9961V23.8398C152.565 23.8659 152.806 23.8919 153.066 23.918C153.34 23.931 153.607 23.9505 153.867 23.9766C154.141 23.9896 154.401 24.0026 154.648 24.0156C154.909 24.0286 155.13 24.0352 155.312 24.0352C155.547 24.0352 155.814 24.0286 156.113 24.0156C156.426 24.0026 156.738 23.9896 157.051 23.9766C157.363 23.9505 157.663 23.931 157.949 23.918C158.236 23.8919 158.483 23.8659 158.691 23.8398L158.77 25.168H158.418C157.676 25.168 157.135 25.3112 156.797 25.5977C156.458 25.8841 156.237 26.2943 156.133 26.8281C156.042 27.362 156.029 28.0195 156.094 28.8008C156.159 29.569 156.23 30.4479 156.309 31.4375L156.699 36.8477C156.751 37.5117 156.816 38.1367 156.895 38.7227C156.986 39.2956 157.116 39.7969 157.285 40.2266C157.467 40.6562 157.702 41.0013 157.988 41.2617C158.288 41.5091 158.665 41.6328 159.121 41.6328H159.668V43C159.316 42.974 159.023 42.9544 158.789 42.9414C158.555 42.9154 158.301 42.8958 158.027 42.8828C157.767 42.8568 157.454 42.8372 157.09 42.8242C156.725 42.8112 156.237 42.7917 155.625 42.7656C154.87 42.7656 154.115 42.7917 153.359 42.8438C152.604 42.8958 151.816 42.9479 150.996 43V41.6328H151.426C151.751 41.6328 152.044 41.5872 152.305 41.4961C152.565 41.3919 152.786 41.2292 152.969 41.0078C153.164 40.7734 153.307 40.4674 153.398 40.0898C153.49 39.6992 153.522 39.2174 153.496 38.6445L152.988 27.4727L147.617 39.2891C147.539 39.4583 147.454 39.6406 147.363 39.8359C147.285 40.0182 147.201 40.2331 147.109 40.4805C147.018 40.7148 146.927 40.9818 146.836 41.2812C146.758 41.5807 146.686 41.9258 146.621 42.3164H145.371C145.267 41.9648 145.176 41.6784 145.098 41.457C145.033 41.2227 144.967 41.0208 144.902 40.8516C144.85 40.6823 144.792 40.5326 144.727 40.4023C144.674 40.2591 144.609 40.1094 144.531 39.9531L139.023 27.8438L138.73 32.2773C138.704 32.5768 138.678 32.987 138.652 33.5078C138.626 34.0156 138.6 34.5495 138.574 35.1094C138.561 35.6693 138.542 36.2161 138.516 36.75C138.503 37.2839 138.496 37.7266 138.496 38.0781V38.6055C138.496 39.2565 138.548 39.7839 138.652 40.1875C138.77 40.5781 138.926 40.8841 139.121 41.1055C139.329 41.3138 139.577 41.457 139.863 41.5352C140.15 41.6003 140.469 41.6328 140.82 41.6328H141.25V43C141.029 42.974 140.566 42.9284 139.863 42.8633C139.173 42.7982 138.197 42.7656 136.934 42.7656C136.686 42.7656 136.452 42.7721 136.23 42.7852C136.009 42.7982 135.768 42.8177 135.508 42.8438C135.247 42.8568 134.948 42.8828 134.609 42.9219C134.271 42.9479 133.861 42.974 133.379 43V41.6328H133.926C134.512 41.6328 134.98 41.4961 135.332 41.2227C135.684 40.9492 135.957 40.5846 136.152 40.1289C136.348 39.6602 136.484 39.1328 136.562 38.5469C136.654 37.9479 136.725 37.3359 136.777 36.7109L137.422 28.2734C137.474 27.5443 137.448 26.9779 137.344 26.5742C137.24 26.1576 137.07 25.8516 136.836 25.6562C136.615 25.4479 136.348 25.3242 136.035 25.2852C135.736 25.2331 135.423 25.207 135.098 25.207H134.785V23.8398C134.876 23.8529 135.026 23.8724 135.234 23.8984C135.456 23.9115 135.703 23.931 135.977 23.957C136.263 23.9701 136.562 23.9896 136.875 24.0156C137.188 24.0286 137.493 24.0352 137.793 24.0352C138.027 24.0352 138.288 24.0286 138.574 24.0156C138.874 24.0026 139.167 23.9896 139.453 23.9766C139.753 23.9505 140.039 23.931 140.312 23.918C140.599 23.8919 140.859 23.8659 141.094 23.8398V23.957C141.094 24.1784 141.126 24.4193 141.191 24.6797C141.257 24.9401 141.328 25.2005 141.406 25.4609C141.497 25.7083 141.595 25.9492 141.699 26.1836C141.803 26.418 141.895 26.6133 141.973 26.7695L146.738 36.9648L150.508 28.8008ZM161.25 23.8594C162.227 23.9245 163.008 23.9701 163.594 23.9961C164.18 24.0221 164.681 24.0352 165.098 24.0352C165.488 24.0352 165.983 24.0221 166.582 23.9961C167.194 23.9701 168.04 23.918 169.121 23.8398V25.207H168.613C167.962 25.207 167.507 25.2982 167.246 25.4805C166.986 25.6497 166.855 25.9557 166.855 26.3984C166.855 26.737 167.428 28.4557 168.574 31.5547C169.668 34.4974 170.573 36.9779 171.289 38.9961C173.099 34.6992 174.368 31.6003 175.098 29.6992C175.84 27.7982 176.211 26.6589 176.211 26.2812C176.211 25.9036 176.068 25.6302 175.781 25.4609C175.495 25.2917 175.026 25.207 174.375 25.207H174.082V23.8398C174.668 23.8919 175.241 23.931 175.801 23.957C176.374 23.9831 176.921 23.9961 177.441 23.9961C177.871 23.9961 178.366 23.9831 178.926 23.957C179.486 23.931 180.085 23.8919 180.723 23.8398V25.207H180.566C180.137 25.207 179.772 25.3047 179.473 25.5C179.186 25.6823 178.939 25.9818 178.73 26.3984C178.704 26.4635 178.594 26.7174 178.398 27.1602C177.018 30.3503 175.54 33.6966 173.965 37.1992C173.184 38.9701 172.188 41.2812 170.977 44.1328C168.372 50.3047 166.367 53.3906 164.961 53.3906C164.44 53.3906 164.004 53.2214 163.652 52.8828C163.301 52.5443 163.125 52.1146 163.125 51.5938C163.125 50.8776 163.626 50.4284 164.629 50.2461C165.033 50.181 165.319 50.1094 165.488 50.0312C166.217 49.7448 167.266 48.0911 168.633 45.0703C169.01 44.224 169.31 43.5599 169.531 43.0781C168.633 40.7604 167.526 37.7852 166.211 34.1523C164.036 28.1628 162.487 25.168 161.562 25.168C161.484 25.168 161.419 25.1745 161.367 25.1875C161.328 25.1875 161.289 25.1875 161.25 25.1875V23.8594ZM197.559 29.7578C197.22 30.0703 196.875 30.3958 196.523 30.7344C196.172 31.0599 195.801 31.4115 195.41 31.7891L191.367 35.6562C190.729 36.2552 190.124 36.8281 189.551 37.375C188.978 37.9219 188.398 38.4818 187.812 39.0547C187.812 39.4062 187.826 39.7383 187.852 40.0508C187.878 40.3633 187.949 40.6367 188.066 40.8711C188.197 41.1055 188.392 41.2943 188.652 41.4375C188.926 41.5677 189.303 41.6328 189.785 41.6328H190.293V43C189.629 42.9479 188.952 42.9023 188.262 42.8633C187.585 42.8242 186.868 42.8047 186.113 42.8047C185.449 42.8047 184.772 42.8242 184.082 42.8633C183.405 42.8893 182.617 42.9349 181.719 43V41.6328H182.168C182.741 41.6328 183.19 41.4635 183.516 41.125C183.841 40.7734 184.082 40.3503 184.238 39.8555C184.408 39.3477 184.512 38.8138 184.551 38.2539C184.59 37.681 184.609 37.1797 184.609 36.75V30.0703C184.609 27.9219 184.44 26.5677 184.102 26.0078C183.932 25.7214 183.691 25.5195 183.379 25.4023C183.079 25.2721 182.689 25.207 182.207 25.207H181.758V23.8398C182.891 23.918 183.776 23.9701 184.414 23.9961C185.052 24.0221 185.566 24.0352 185.957 24.0352C186.374 24.0352 186.901 24.0221 187.539 23.9961C188.19 23.9701 189.076 23.918 190.195 23.8398V25.207H189.648C189.388 25.207 189.141 25.2852 188.906 25.4414C188.672 25.5846 188.47 25.7799 188.301 26.0273C187.975 26.5091 187.812 27.5378 187.812 29.1133V36.5938C188.19 36.2422 188.568 35.8906 188.945 35.5391C189.336 35.1745 189.727 34.8034 190.117 34.4258L194.355 30.4219L197.539 27.3164C197.513 26.7695 197.441 26.3529 197.324 26.0664C197.207 25.7799 197.051 25.5716 196.855 25.4414C196.673 25.3112 196.458 25.2396 196.211 25.2266C195.977 25.2135 195.729 25.207 195.469 25.207H195.176V23.8398C196.296 23.918 197.174 23.9701 197.812 23.9961C198.464 24.0221 198.997 24.0352 199.414 24.0352C199.805 24.0352 200.319 24.0221 200.957 23.9961C201.595 23.9701 202.428 23.918 203.457 23.8398V25.207H203.008C202.448 25.207 202.012 25.3307 201.699 25.5781C201.4 25.8255 201.178 26.1706 201.035 26.6133C200.905 27.043 200.827 27.5573 200.801 28.1562C200.775 28.7422 200.762 29.3802 200.762 30.0703V37.7656C200.762 38.2995 200.775 38.8008 200.801 39.2695C200.827 39.7383 200.905 40.1484 201.035 40.5C201.178 40.8516 201.4 41.1315 201.699 41.3398C202.012 41.5352 202.448 41.6328 203.008 41.6328H203.457V43C202.428 42.9219 201.556 42.8698 200.84 42.8438C200.124 42.8177 199.57 42.8047 199.18 42.8047C198.841 42.8047 198.509 42.8112 198.184 42.8242C197.871 42.8242 197.539 42.8372 197.188 42.8633C196.849 42.8763 196.478 42.8958 196.074 42.9219C195.684 42.9479 195.247 42.974 194.766 43V41.6328H195.273C196.016 41.6328 196.582 41.2422 196.973 40.4609C197.363 39.6667 197.559 38.5013 197.559 36.9648V29.7578ZM198.242 15.4219C197.904 16.2812 197.487 17.0169 196.992 17.6289C196.497 18.2279 195.964 18.7227 195.391 19.1133C194.831 19.5039 194.245 19.7904 193.633 19.9727C193.034 20.1549 192.448 20.2461 191.875 20.2461C191.068 20.2461 190.384 20.1484 189.824 19.9531C189.264 19.7448 188.815 19.4844 188.477 19.1719C188.138 18.8464 187.891 18.4883 187.734 18.0977C187.591 17.694 187.52 17.3034 187.52 16.9258C187.52 16.6523 187.565 16.3919 187.656 16.1445C187.747 15.8841 187.878 15.6562 188.047 15.4609C188.229 15.2656 188.444 15.1159 188.691 15.0117C188.952 14.8945 189.251 14.8359 189.59 14.8359C189.98 14.8359 190.28 14.9206 190.488 15.0898C190.71 15.2461 190.859 15.4414 190.938 15.6758C191.029 15.9102 191.074 16.1576 191.074 16.418C191.074 16.6654 191.055 16.8802 191.016 17.0625C190.911 17.5573 190.97 17.9154 191.191 18.1367C191.413 18.3451 191.803 18.4492 192.363 18.4492C193.275 18.4492 194.147 18.1367 194.98 17.5117C195.827 16.8737 196.543 15.9948 197.129 14.875L198.242 15.4219Z" fill="#1C1C1C"/>
<path d="M14.5 65.175L13.775 64.515C11.2 62.18 9.5 60.635 9.5 58.75C9.5 57.205 10.71 56 12.25 56C13.12 56 13.955 56.405 14.5 57.04C15.045 56.405 15.88 56 16.75 56C18.29 56 19.5 57.205 19.5 58.75C19.5 60.635 17.8 62.18 15.225 64.515L14.5 65.175Z" fill="#1976D2"/>
<path d="M25.733 66V55.8182H31.8778V56.9119H26.9659V60.0938H29.5511C30.2803 60.0938 30.8951 60.2131 31.3956 60.4517C31.8994 60.6903 32.2805 61.0268 32.5391 61.4609C32.8009 61.8951 32.9318 62.4072 32.9318 62.9972C32.9318 63.5871 32.8009 64.1075 32.5391 64.5582C32.2805 65.009 31.8994 65.362 31.3956 65.6172C30.8951 65.8724 30.2803 66 29.5511 66H25.733ZM26.9659 64.9261H29.5511C30.0152 64.9261 30.4079 64.8333 30.7294 64.6477C31.0542 64.4588 31.2995 64.2169 31.4652 63.9219C31.6342 63.6236 31.7188 63.3087 31.7188 62.9773C31.7188 62.4901 31.5315 62.0708 31.157 61.7195C30.7824 61.3648 30.2472 61.1875 29.5511 61.1875H26.9659V64.9261ZM34.1262 66V64.9062H34.4047C34.6333 64.9062 34.8239 64.8615 34.9764 64.772C35.1288 64.6792 35.2515 64.5185 35.3443 64.2898C35.4404 64.0578 35.5133 63.7363 35.563 63.3253C35.6161 62.911 35.6542 62.384 35.6774 61.7443L35.8166 58.3636H40.9075V66H39.7342V59.4574H36.9302L36.8109 62.1818C36.7844 62.8082 36.728 63.3601 36.6419 63.8374C36.559 64.3113 36.4314 64.709 36.2591 65.0305C36.09 65.352 35.8646 65.594 35.5829 65.7564C35.3012 65.9188 34.9482 66 34.524 66H34.1262ZM45.3074 66.179C44.8234 66.179 44.3843 66.0878 43.9899 65.9055C43.5955 65.7199 43.2823 65.4531 43.0502 65.1051C42.8182 64.7538 42.7022 64.3295 42.7022 63.8324C42.7022 63.3949 42.7884 63.0402 42.9608 62.7685C43.1331 62.4934 43.3635 62.2779 43.6518 62.1222C43.9402 61.9664 44.2583 61.8504 44.6064 61.7741C44.9577 61.6946 45.3107 61.6316 45.6653 61.5852C46.1293 61.5256 46.5055 61.4808 46.7939 61.451C47.0855 61.4179 47.2976 61.3632 47.4302 61.2869C47.5661 61.2107 47.6341 61.0781 47.6341 60.8892V60.8494C47.6341 60.3589 47.4998 59.9777 47.2314 59.706C46.9662 59.4342 46.5635 59.2983 46.0233 59.2983C45.4631 59.2983 45.024 59.4209 44.7058 59.6662C44.3876 59.9115 44.1639 60.1733 44.0346 60.4517L42.921 60.054C43.1199 59.59 43.385 59.2287 43.7164 58.9702C44.0512 58.7083 44.4158 58.526 44.8102 58.4233C45.2079 58.3172 45.599 58.2642 45.9835 58.2642C46.2288 58.2642 46.5105 58.294 46.8287 58.3537C47.1502 58.41 47.46 58.5277 47.7583 58.7067C48.06 58.8857 48.3102 59.1558 48.5091 59.517C48.7079 59.8783 48.8074 60.3622 48.8074 60.9688V66H47.6341V64.9659H47.5744C47.4949 65.1316 47.3623 65.3089 47.1767 65.4979C46.9911 65.6868 46.7441 65.8475 46.4359 65.9801C46.1277 66.1127 45.7515 66.179 45.3074 66.179ZM45.4863 65.125C45.9503 65.125 46.3414 65.0339 46.6596 64.8516C46.9811 64.6693 47.2231 64.4339 47.3855 64.1456C47.5512 63.8572 47.6341 63.554 47.6341 63.2358V62.1619C47.5843 62.2216 47.475 62.2763 47.3059 62.326C47.1402 62.3724 46.948 62.4138 46.7292 62.4503C46.5138 62.4834 46.3033 62.5133 46.0978 62.5398C45.8957 62.563 45.7316 62.5829 45.6056 62.5994C45.3007 62.6392 45.0157 62.7038 44.7505 62.7933C44.4887 62.8795 44.2766 63.0104 44.1142 63.1861C43.9551 63.3584 43.8755 63.5937 43.8755 63.892C43.8755 64.2997 44.0263 64.608 44.3279 64.8168C44.6329 65.0223 45.019 65.125 45.4863 65.125ZM55.6619 58.3636V59.4574H52.1222V66H50.9489V58.3636H55.6619ZM60.0804 66.1591C59.391 66.1591 58.7862 65.995 58.2658 65.6669C57.7488 65.3388 57.3444 64.8797 57.0527 64.2898C56.7644 63.6998 56.6202 63.0104 56.6202 62.2216C56.6202 61.4261 56.7644 60.7318 57.0527 60.1385C57.3444 59.5452 57.7488 59.0845 58.2658 58.7564C58.7862 58.4283 59.391 58.2642 60.0804 58.2642C60.7698 58.2642 61.373 58.4283 61.8901 58.7564C62.4105 59.0845 62.8148 59.5452 63.1032 60.1385C63.3948 60.7318 63.5407 61.4261 63.5407 62.2216C63.5407 63.0104 63.3948 63.6998 63.1032 64.2898C62.8148 64.8797 62.4105 65.3388 61.8901 65.6669C61.373 65.995 60.7698 66.1591 60.0804 66.1591ZM60.0804 65.1051C60.6041 65.1051 61.035 64.9709 61.373 64.7024C61.7111 64.4339 61.9614 64.081 62.1238 63.6435C62.2862 63.206 62.3674 62.732 62.3674 62.2216C62.3674 61.7112 62.2862 61.2356 62.1238 60.7947C61.9614 60.3539 61.7111 59.9976 61.373 59.7259C61.035 59.4541 60.6041 59.3182 60.0804 59.3182C59.5568 59.3182 59.1259 59.4541 58.7878 59.7259C58.4498 59.9976 58.1995 60.3539 58.0371 60.7947C57.8747 61.2356 57.7935 61.7112 57.7935 62.2216C57.7935 62.732 57.8747 63.206 58.0371 63.6435C58.1995 64.081 58.4498 64.4339 58.7878 64.7024C59.1259 64.9709 59.5568 65.1051 60.0804 65.1051ZM64.5163 68.1875V64.9062H65.1527C65.3085 64.7438 65.4427 64.5682 65.5554 64.3793C65.6681 64.1903 65.7659 63.9666 65.8487 63.7081C65.9349 63.4463 66.0078 63.1281 66.0675 62.7536C66.1271 62.3757 66.1802 61.92 66.2266 61.3864L66.4851 58.3636H71.3374V64.9062H72.5107V68.1875H71.3374V66H65.6896V68.1875H64.5163ZM66.4851 64.9062H70.1641V59.4574H67.5788L67.38 61.3864C67.2971 62.1851 67.1944 62.8828 67.0717 63.4794C66.9491 64.076 66.7536 64.5516 66.4851 64.9062ZM74.068 66V58.3636H75.2413V66H74.068ZM74.6646 57.0909C74.4359 57.0909 74.2387 57.013 74.073 56.8572C73.9106 56.7015 73.8294 56.5142 73.8294 56.2955C73.8294 56.0767 73.9106 55.8894 74.073 55.7337C74.2387 55.5779 74.4359 55.5 74.6646 55.5C74.8933 55.5 75.0888 55.5779 75.2512 55.7337C75.417 55.8894 75.4998 56.0767 75.4998 56.2955C75.4998 56.5142 75.417 56.7015 75.2512 56.8572C75.0888 57.013 74.8933 57.0909 74.6646 57.0909ZM78.5636 64.2699L82.2425 58.3636H83.5948V66H82.4215V60.0938L78.7624 66H77.3903V58.3636H78.5636V64.2699ZM81.467 55.8182H82.5607C82.5607 56.3551 82.3751 56.7943 82.0039 57.1357C81.6327 57.477 81.1289 57.6477 80.4925 57.6477C79.8661 57.6477 79.3673 57.477 78.9961 57.1357C78.6282 56.7943 78.4442 56.3551 78.4442 55.8182H79.538C79.538 56.0767 79.6093 56.3037 79.7518 56.4993C79.8976 56.6948 80.1445 56.7926 80.4925 56.7926C80.8406 56.7926 81.0891 56.6948 81.2383 56.4993C81.3907 56.3037 81.467 56.0767 81.467 55.8182ZM90.8546 61.6449V62.7386H86.6387V61.6449H90.8546ZM86.9171 58.3636V66H85.7438V58.3636H86.9171ZM91.7495 58.3636V66H90.5762V58.3636H91.7495ZM96.1394 66.179C95.6555 66.179 95.2163 66.0878 94.8219 65.9055C94.4275 65.7199 94.1143 65.4531 93.8823 65.1051C93.6503 64.7538 93.5343 64.3295 93.5343 63.8324C93.5343 63.3949 93.6204 63.0402 93.7928 62.7685C93.9651 62.4934 94.1955 62.2779 94.4838 62.1222C94.7722 61.9664 95.0904 61.8504 95.4384 61.7741C95.7897 61.6946 96.1427 61.6316 96.4973 61.5852C96.9614 61.5256 97.3375 61.4808 97.6259 61.451C97.9176 61.4179 98.1297 61.3632 98.2623 61.2869C98.3981 61.2107 98.4661 61.0781 98.4661 60.8892V60.8494C98.4661 60.3589 98.3319 59.9777 98.0634 59.706C97.7982 59.4342 97.3955 59.2983 96.8553 59.2983C96.2952 59.2983 95.856 59.4209 95.5378 59.6662C95.2196 59.9115 94.9959 60.1733 94.8667 60.4517L93.753 60.054C93.9519 59.59 94.217 59.2287 94.5485 58.9702C94.8832 58.7083 95.2478 58.526 95.6422 58.4233C96.04 58.3172 96.431 58.2642 96.8155 58.2642C97.0608 58.2642 97.3425 58.294 97.6607 58.3537C97.9822 58.41 98.2921 58.5277 98.5904 58.7067C98.892 58.8857 99.1422 59.1558 99.3411 59.517C99.54 59.8783 99.6394 60.3622 99.6394 60.9688V66H98.4661V64.9659H98.4064C98.3269 65.1316 98.1943 65.3089 98.0087 65.4979C97.8231 65.6868 97.5762 65.8475 97.2679 65.9801C96.9597 66.1127 96.5835 66.179 96.1394 66.179ZM96.3184 65.125C96.7824 65.125 97.1735 65.0339 97.4917 64.8516C97.8132 64.6693 98.0551 64.4339 98.2175 64.1456C98.3832 63.8572 98.4661 63.554 98.4661 63.2358V62.1619C98.4164 62.2216 98.307 62.2763 98.138 62.326C97.9722 62.3724 97.78 62.4138 97.5613 62.4503C97.3458 62.4834 97.1354 62.5133 96.9299 62.5398C96.7277 62.563 96.5636 62.5829 96.4377 62.5994C96.1328 62.6392 95.8477 62.7038 95.5826 62.7933C95.3207 62.8795 95.1086 63.0104 94.9462 63.1861C94.7871 63.3584 94.7076 63.5937 94.7076 63.892C94.7076 64.2997 94.8584 64.608 95.16 64.8168C95.4649 65.0223 95.851 65.125 96.3184 65.125ZM105.718 66V58.3636H111.724V66H110.551V59.4574H106.892V66H105.718ZM113.191 66V64.9062H113.469C113.698 64.9062 113.888 64.8615 114.041 64.772C114.193 64.6792 114.316 64.5185 114.409 64.2898C114.505 64.0578 114.578 63.7363 114.627 63.3253C114.681 62.911 114.719 62.384 114.742 61.7443L114.881 58.3636H119.972V66H118.799V59.4574H115.995L115.875 62.1818C115.849 62.8082 115.792 63.3601 115.706 63.8374C115.623 64.3113 115.496 64.709 115.324 65.0305C115.154 65.352 114.929 65.594 114.647 65.7564C114.366 65.9188 114.013 66 113.588 66H113.191ZM124.372 66.179C123.888 66.179 123.449 66.0878 123.054 65.9055C122.66 65.7199 122.347 65.4531 122.115 65.1051C121.883 64.7538 121.767 64.3295 121.767 63.8324C121.767 63.3949 121.853 63.0402 122.025 62.7685C122.198 62.4934 122.428 62.2779 122.716 62.1222C123.005 61.9664 123.323 61.8504 123.671 61.7741C124.022 61.6946 124.375 61.6316 124.73 61.5852C125.194 61.5256 125.57 61.4808 125.858 61.451C126.15 61.4179 126.362 61.3632 126.495 61.2869C126.631 61.2107 126.699 61.0781 126.699 60.8892V60.8494C126.699 60.3589 126.564 59.9777 126.296 59.706C126.031 59.4342 125.628 59.2983 125.088 59.2983C124.528 59.2983 124.088 59.4209 123.77 59.6662C123.452 59.9115 123.228 60.1733 123.099 60.4517L121.985 60.054C122.184 59.59 122.449 59.2287 122.781 58.9702C123.116 58.7083 123.48 58.526 123.875 58.4233C124.272 58.3172 124.663 58.2642 125.048 58.2642C125.293 58.2642 125.575 58.294 125.893 58.3537C126.215 58.41 126.525 58.5277 126.823 58.7067C127.124 58.8857 127.375 59.1558 127.574 59.517C127.772 59.8783 127.872 60.3622 127.872 60.9688V66H126.699V64.9659H126.639C126.559 65.1316 126.427 65.3089 126.241 65.4979C126.056 65.6868 125.809 65.8475 125.5 65.9801C125.192 66.1127 124.816 66.179 124.372 66.179ZM124.551 65.125C125.015 65.125 125.406 65.0339 125.724 64.8516C126.046 64.6693 126.288 64.4339 126.45 64.1456C126.616 63.8572 126.699 63.554 126.699 63.2358V62.1619C126.649 62.2216 126.539 62.2763 126.37 62.326C126.205 62.3724 126.012 62.4138 125.794 62.4503C125.578 62.4834 125.368 62.5133 125.162 62.5398C124.96 62.563 124.796 62.5829 124.67 62.5994C124.365 62.6392 124.08 62.7038 123.815 62.7933C123.553 62.8795 123.341 63.0104 123.179 63.1861C123.02 63.3584 122.94 63.5937 122.94 63.892C122.94 64.2997 123.091 64.608 123.392 64.8168C123.697 65.0223 124.083 65.125 124.551 65.125ZM128.974 59.4574V58.3636H135.179V59.4574H132.673V66H131.5V59.4574H128.974ZM139.596 68.6051V55.8182H140.769V68.6051H139.596ZM139.596 66.1591C139.079 66.1591 138.608 66.0663 138.184 65.8807C137.76 65.6918 137.395 65.425 137.09 65.0803C136.785 64.7322 136.55 64.3163 136.384 63.8324C136.219 63.3485 136.136 62.8116 136.136 62.2216C136.136 61.625 136.219 61.0848 136.384 60.6009C136.55 60.1136 136.785 59.696 137.09 59.348C137.395 59 137.76 58.7332 138.184 58.5476C138.608 58.3587 139.079 58.2642 139.596 58.2642H139.954V66.1591H139.596ZM139.596 65.1051H139.795V59.3182H139.596C139.205 59.3182 138.865 59.3977 138.577 59.5568C138.289 59.7126 138.05 59.9264 137.861 60.1982C137.675 60.4666 137.536 60.7749 137.443 61.1229C137.354 61.4709 137.309 61.8371 137.309 62.2216C137.309 62.732 137.39 63.206 137.553 63.6435C137.715 64.081 137.965 64.4339 138.303 64.7024C138.642 64.9709 139.072 65.1051 139.596 65.1051ZM140.769 66.1591H140.411V58.2642H140.769C141.286 58.2642 141.757 58.3587 142.181 58.5476C142.606 58.7332 142.97 59 143.275 59.348C143.58 59.696 143.815 60.1136 143.981 60.6009C144.147 61.0848 144.23 61.625 144.23 62.2216C144.23 62.8116 144.147 63.3485 143.981 63.8324C143.815 64.3163 143.58 64.7322 143.275 65.0803C142.97 65.425 142.606 65.6918 142.181 65.8807C141.757 66.0663 141.286 66.1591 140.769 66.1591ZM140.769 65.1051C141.164 65.1051 141.503 65.0289 141.789 64.8764C142.077 64.7206 142.314 64.5085 142.499 64.2401C142.688 63.9683 142.828 63.66 142.917 63.3153C143.01 62.9673 143.056 62.6027 143.056 62.2216C143.056 61.7112 142.975 61.2356 142.813 60.7947C142.65 60.3539 142.4 59.9976 142.062 59.7259C141.724 59.4541 141.293 59.3182 140.769 59.3182H140.57V65.1051H140.769ZM149.125 66.1591C148.436 66.1591 147.831 65.995 147.311 65.6669C146.794 65.3388 146.389 64.8797 146.098 64.2898C145.809 63.6998 145.665 63.0104 145.665 62.2216C145.665 61.4261 145.809 60.7318 146.098 60.1385C146.389 59.5452 146.794 59.0845 147.311 58.7564C147.831 58.4283 148.436 58.2642 149.125 58.2642C149.815 58.2642 150.418 58.4283 150.935 58.7564C151.455 59.0845 151.86 59.5452 152.148 60.1385C152.44 60.7318 152.586 61.4261 152.586 62.2216C152.586 63.0104 152.44 63.6998 152.148 64.2898C151.86 64.8797 151.455 65.3388 150.935 65.6669C150.418 65.995 149.815 66.1591 149.125 66.1591ZM149.125 65.1051C149.649 65.1051 150.08 64.9709 150.418 64.7024C150.756 64.4339 151.006 64.081 151.169 63.6435C151.331 63.206 151.412 62.732 151.412 62.2216C151.412 61.7112 151.331 61.2356 151.169 60.7947C151.006 60.3539 150.756 59.9976 150.418 59.7259C150.08 59.4541 149.649 59.3182 149.125 59.3182C148.602 59.3182 148.171 59.4541 147.833 59.7259C147.495 59.9976 147.244 60.3539 147.082 60.7947C146.92 61.2356 146.838 61.7112 146.838 62.2216C146.838 62.732 146.92 63.206 147.082 63.6435C147.244 64.081 147.495 64.4339 147.833 64.7024C148.171 64.9709 148.602 65.1051 149.125 65.1051ZM154.377 68.8636V58.3636H155.51V59.5767H155.649C155.735 59.4441 155.855 59.2751 156.007 59.0696C156.163 58.8608 156.385 58.6752 156.673 58.5128C156.965 58.3471 157.36 58.2642 157.857 58.2642C158.5 58.2642 159.066 58.425 159.557 58.7464C160.048 59.0679 160.43 59.5237 160.705 60.1136C160.981 60.7036 161.118 61.3996 161.118 62.2017C161.118 63.0104 160.981 63.7114 160.705 64.3047C160.43 64.8946 160.049 65.352 159.562 65.6768C159.075 65.9983 158.513 66.1591 157.877 66.1591C157.386 66.1591 156.993 66.0779 156.698 65.9155C156.403 65.7498 156.176 65.5625 156.017 65.3537C155.858 65.1416 155.735 64.9659 155.649 64.8267H155.55V68.8636H154.377ZM155.53 62.1818C155.53 62.7585 155.615 63.2673 155.784 63.7081C155.953 64.1456 156.2 64.4886 156.524 64.7372C156.849 64.9825 157.247 65.1051 157.718 65.1051C158.208 65.1051 158.617 64.9759 158.945 64.7173C159.277 64.4555 159.526 64.1042 159.691 63.6634C159.86 63.2192 159.945 62.7254 159.945 62.1818C159.945 61.6449 159.862 61.161 159.696 60.7301C159.534 60.2959 159.287 59.9529 158.955 59.701C158.627 59.4458 158.215 59.3182 157.718 59.3182C157.24 59.3182 156.839 59.4392 156.514 59.6811C156.19 59.9197 155.944 60.2545 155.779 60.6854C155.613 61.1129 155.53 61.6117 155.53 62.1818ZM167.084 64.4091L169.749 58.3636H170.862L167.561 66H166.607L163.365 58.3636H164.459L167.084 64.4091ZM164.081 58.3636V66H162.908V58.3636H164.081ZM170.087 66V58.3636H171.26V66H170.087ZM175.655 66.179C175.171 66.179 174.732 66.0878 174.338 65.9055C173.943 65.7199 173.63 65.4531 173.398 65.1051C173.166 64.7538 173.05 64.3295 173.05 63.8324C173.05 63.3949 173.136 63.0402 173.308 62.7685C173.481 62.4934 173.711 62.2779 173.999 62.1222C174.288 61.9664 174.606 61.8504 174.954 61.7741C175.305 61.6946 175.658 61.6316 176.013 61.5852C176.477 61.5256 176.853 61.4808 177.142 61.451C177.433 61.4179 177.645 61.3632 177.778 61.2869C177.914 61.2107 177.982 61.0781 177.982 60.8892V60.8494C177.982 60.3589 177.847 59.9777 177.579 59.706C177.314 59.4342 176.911 59.2983 176.371 59.2983C175.811 59.2983 175.372 59.4209 175.053 59.6662C174.735 59.9115 174.512 60.1733 174.382 60.4517L173.269 60.054C173.468 59.59 173.733 59.2287 174.064 58.9702C174.399 58.7083 174.763 58.526 175.158 58.4233C175.556 58.3172 175.947 58.2642 176.331 58.2642C176.576 58.2642 176.858 58.294 177.176 58.3537C177.498 58.41 177.808 58.5277 178.106 58.7067C178.408 58.8857 178.658 59.1558 178.857 59.517C179.056 59.8783 179.155 60.3622 179.155 60.9688V66H177.982V64.9659H177.922C177.843 65.1316 177.71 65.3089 177.524 65.4979C177.339 65.6868 177.092 65.8475 176.784 65.9801C176.475 66.1127 176.099 66.179 175.655 66.179ZM175.834 65.125C176.298 65.125 176.689 65.0339 177.007 64.8516C177.329 64.6693 177.571 64.4339 177.733 64.1456C177.899 63.8572 177.982 63.554 177.982 63.2358V62.1619C177.932 62.2216 177.823 62.2763 177.654 62.326C177.488 62.3724 177.296 62.4138 177.077 62.4503C176.861 62.4834 176.651 62.5133 176.445 62.5398C176.243 62.563 176.079 62.5829 175.953 62.5994C175.648 62.6392 175.363 62.7038 175.098 62.7933C174.836 62.8795 174.624 63.0104 174.462 63.1861C174.303 63.3584 174.223 63.5937 174.223 63.892C174.223 64.2997 174.374 64.608 174.676 64.8168C174.981 65.0223 175.367 65.125 175.834 65.125Z" fill="#1C1C1C"/>
<path d="M190.5 65.175L189.775 64.515C187.2 62.18 185.5 60.635 185.5 58.75C185.5 57.205 186.71 56 188.25 56C189.12 56 189.955 56.405 190.5 57.04C191.045 56.405 191.88 56 192.75 56C194.29 56 195.5 57.205 195.5 58.75C195.5 60.635 193.8 62.18 191.225 64.515L190.5 65.175Z" fill="#FFC107"/>
</svg>
