<svg width="30" height="30" viewBox="0 0 30 30" fill="none" xmlns="http://www.w3.org/2000/svg">
  <path d="M3.32883 1.08037C3.30129 1.08008 3.27387 1.08119 3.24639 1.08213C3.20971 1.0835 3.17309 1.08596 3.13652 1.08951C2.69895 1.1317 2.27625 1.33256 1.8293 1.74137C1.24424 2.27621 1.07561 2.77613 1.16092 3.36547C1.24617 3.95469 1.65035 4.66836 2.39871 5.41074C2.56834 5.57902 2.75766 5.74689 2.9608 5.91611C3.03522 5.97793 3.11109 6.04092 3.18973 6.10279C3.25631 6.15539 3.32347 6.20727 3.39117 6.25842C3.40477 6.26867 3.41777 6.27939 3.43148 6.28959C4.37748 6.99494 5.59904 7.69221 7.04584 8.33322C16.4046 17.785 23.9686 25.768 28.9947 28.9655C26 23.9485 18.0124 16.3901 8.4869 6.96172C7.88748 5.56707 7.24969 4.40058 6.60639 3.48816C8.68412 2.89109 11.4414 3.35375 13.9746 5.88699C16.3325 8.24492 17.059 11.2059 16.3989 13.4071C16.6854 13.695 16.978 13.9879 17.2595 14.2713C18.3769 11.5702 17.5274 7.89078 14.7491 5.11238C12.6577 3.02099 10.3264 2.16371 8.24332 2.1698C8.17611 2.1701 8.10855 2.17156 8.04188 2.17355C6.76195 2.21164 5.58346 2.57773 4.62328 3.1806C4.45539 3.28601 4.29284 3.39971 4.13625 3.52127C4.21418 3.70256 4.29785 3.86603 4.39441 4.00279C4.50691 4.16217 4.62902 4.29201 4.79906 4.39467C4.92809 4.29406 5.06262 4.19691 5.20559 4.10721C5.26823 4.06738 5.33173 4.02889 5.39602 3.99178C5.87625 4.58287 6.30217 5.43459 6.8884 6.76033C5.4876 6.14111 4.61367 5.7033 4.01537 5.1783C4.01678 5.17654 4.01772 5.17461 4.01912 5.17285C3.99375 5.15351 3.96832 5.13447 3.94412 5.11426C3.94342 5.11375 3.94277 5.11316 3.94219 5.1125C3.28506 4.50459 2.97352 3.76871 2.63496 2.50508C2.98582 2.59912 3.29449 2.69199 3.57246 2.78891C4.05902 2.42012 4.58606 2.10804 5.14336 1.85873C4.58672 1.40533 4.05633 1.15971 3.57973 1.09877C3.49518 1.08793 3.41156 1.08113 3.32883 1.08037ZM28.9031 3.77193C24.3336 3.77193 21.5445 5.46447 20.3411 7.83869C19.1378 10.2129 19.5212 13.135 20.9088 15.5383C21.5759 16.6938 21.9522 17.9223 22.033 19.1254C22.3949 19.4991 22.7556 19.8738 23.1152 20.2497C23.2506 18.4945 22.818 16.6549 21.8572 14.9909C20.6191 12.8462 20.3247 10.2968 21.319 8.33498C22.3133 6.37314 24.5967 4.86693 28.9032 4.86693V3.77205L28.9031 3.77193ZM2.22106 6.73467C2.05148 8.13652 2.58316 9.67666 3.95145 11.0449L4.72594 10.2722C3.7902 9.33646 3.36727 8.40699 3.29408 7.54215C2.90467 7.27789 2.54678 7.00883 2.221 6.73461L2.22106 6.73467ZM7.2692 16.2305C5.83565 16.2288 4.63014 16.5188 3.67488 17.0306C2.2193 17.8105 1.36846 19.1321 1.28719 20.5738C1.1243 23.457 3.88758 26.5885 9.51404 27.5043C15.4689 28.4737 19.4927 26.9662 21.5496 24.3366C21.6087 24.2611 21.6661 24.1848 21.7218 24.1077C21.4551 23.8597 21.1858 23.6085 20.9142 23.3533C20.842 23.4582 20.7666 23.5613 20.6872 23.6627C18.9311 25.9077 15.3929 27.3523 9.68988 26.424C4.39336 25.5618 2.26043 22.7603 2.38031 20.6359C2.44025 19.5738 3.02379 18.622 4.19309 17.9956C5.36233 17.3691 7.13842 17.0953 9.49582 17.5579C11.4925 17.9499 13.1836 17.7612 14.5019 17.1515C14.2253 16.879 13.9458 16.6048 13.6652 16.3274C12.6371 16.7054 11.3279 16.8013 9.70635 16.483C8.83359 16.3118 8.02014 16.2312 7.2692 16.2304V16.2305Z" fill="#1976D2" />
</svg>