<svg width="30" height="30" viewBox="0 0 30 30" fill="none" xmlns="http://www.w3.org/2000/svg">
  <path d="M19.2549 10.6675C18.3919 10.6675 17.6924 9.96793 17.6924 9.10498C17.6924 8.24204 18.3919 7.54248 19.2549 7.54248C20.1178 7.54248 20.8174 8.24204 20.8174 9.10498C20.8174 9.96793 20.1178 10.6675 19.2549 10.6675Z" fill="#1976D2" />
  <path d="M13.6323 9.65137C12.7694 9.65137 12.0698 8.95181 12.0698 8.08887C12.0698 7.22592 12.7694 6.52637 13.6323 6.52637C14.4953 6.52637 15.1948 7.22592 15.1948 8.08887C15.1948 8.95181 14.4953 9.65137 13.6323 9.65137Z" fill="#1976D2" />
  <path d="M9.25488 13.05C8.39194 13.05 7.69238 12.3505 7.69238 11.4875C7.69238 10.6246 8.39194 9.92505 9.25488 9.92505C10.1178 9.92505 10.8174 10.6246 10.8174 11.4875C10.8174 12.3505 10.1178 13.05 9.25488 13.05Z" fill="#1976D2" />
  <path d="M8.04395 18.3201C7.181 18.3201 6.48145 17.6205 6.48145 16.7576C6.48145 15.8946 7.181 15.1951 8.04395 15.1951C8.90689 15.1951 9.60645 15.8946 9.60645 16.7576C9.60645 17.6205 8.90689 18.3201 8.04395 18.3201Z" fill="#1976D2" />
  <path d="M10.8174 23.0601C9.95444 23.0601 9.25488 22.3605 9.25488 21.4976C9.25488 20.6346 9.95444 19.9351 10.8174 19.9351C11.6803 19.9351 12.3799 20.6346 12.3799 21.4976C12.3799 22.3605 11.6803 23.0601 10.8174 23.0601Z" fill="#1976D2" />
  <path d="M26.5625 15C26.5625 12.7132 25.8844 10.4777 24.6139 8.57622C23.3434 6.67478 21.5376 5.19279 19.4248 4.31765C17.312 3.44251 14.9872 3.21353 12.7443 3.65968C10.5014 4.10582 8.44113 5.20704 6.82408 6.82408C5.20704 8.44113 4.10582 10.5014 3.65968 12.7443C3.21353 14.9872 3.44251 17.312 4.31765 19.4248C5.19279 21.5376 6.67478 23.3434 8.57622 24.6139C10.4777 25.8844 12.7132 26.5625 15 26.5625C16.6475 26.5625 17.78 24.9625 17.9113 23.32L18.0575 21.4788C18.1286 20.5889 18.5149 19.7535 19.1468 19.1229C19.7788 18.4924 20.615 18.1079 21.505 18.0388L23.5688 17.8775C25.1688 17.7525 26.5625 16.6038 26.5625 15Z" stroke="#1976D2" stroke-width="1.5" stroke-linejoin="round" />
</svg>