<svg width="30" height="30" viewBox="0 0 30 30" fill="none" xmlns="http://www.w3.org/2000/svg">
  <path d="M3 6.477V12C2.99998 13.0587 3.22411 14.1055 3.65766 15.0714C4.0912 16.0373 4.72433 16.9004 5.5154 17.6041C6.30647 18.3077 7.23756 18.8359 8.24741 19.1539C9.25726 19.4719 10.323 19.5724 11.3745 19.449C11.6615 20.018 12.0065 20.545 12.4095 21.03L9.204 24.2355C9.06738 24.377 8.99179 24.5664 8.99349 24.7631C8.9952 24.9597 9.07408 25.1478 9.21314 25.2869C9.35219 25.4259 9.5403 25.5048 9.73695 25.5065C9.9336 25.5082 10.123 25.4326 10.2645 25.296L13.47 22.0905C14.6748 23.094 16.1407 23.7334 17.6958 23.9338C19.2509 24.1341 20.831 23.8872 22.2508 23.2218C23.6706 22.5564 24.8715 21.5002 25.7126 20.1769C26.5537 18.8536 27.0003 17.318 27 15.75V9.615C27 8.445 26.055 7.5 24.885 7.5H18.75C18.0375 7.5 17.346 7.59 16.6875 7.7595C15.9985 6.75442 15.075 5.93234 13.9969 5.3644C12.9188 4.79647 11.7186 4.49978 10.5 4.5H4.977C3.885 4.5 3 5.385 3 6.477ZM14.5365 21.024L19.281 16.281C19.4218 16.1404 19.501 15.9496 19.5012 15.7505C19.5013 15.5515 19.4224 15.3606 19.2817 15.2198C19.1411 15.0789 18.9503 14.9997 18.7513 14.9996C18.5523 14.9994 18.3613 15.0784 18.2205 15.219L13.476 19.965C12.6821 18.9719 12.1847 17.7748 12.0413 16.5115C11.8979 15.2481 12.1142 13.97 12.6653 12.8242C13.2164 11.6784 14.0799 10.7116 15.1564 10.035C16.2329 9.35843 17.4786 8.99966 18.75 9H24.885C24.9658 9 25.0457 9.01591 25.1203 9.04681C25.195 9.07772 25.2628 9.12302 25.3199 9.18013C25.377 9.23724 25.4223 9.30504 25.4532 9.37965C25.4841 9.45427 25.5 9.53424 25.5 9.615V15.75C25.5001 17.0212 25.1413 18.2665 24.4648 19.3428C23.7883 20.419 22.8217 21.2823 21.6761 21.8334C20.5306 22.3844 19.2528 22.6008 17.9897 22.4576C16.7266 22.3144 15.5296 21.8175 14.5365 21.024ZM10.5 6C12.414 6 14.1195 6.897 15.2175 8.292C13.608 9.05673 12.2881 10.3203 11.454 11.895L8.781 9.219C8.71127 9.14927 8.62848 9.09395 8.53738 9.05622C8.44627 9.01848 8.34862 8.99905 8.25 8.99905C8.15138 8.99905 8.05373 9.01848 7.96262 9.05622C7.87152 9.09395 7.78873 9.14927 7.719 9.219C7.64927 9.28873 7.59395 9.37152 7.55621 9.46263C7.51848 9.55373 7.49905 9.65138 7.49905 9.75C7.49905 9.84862 7.51848 9.94627 7.55621 10.0374C7.59395 10.1285 7.64927 10.2113 7.719 10.281L10.839 13.401C10.6134 14.1636 10.4992 14.9548 10.5 15.75C10.5 16.527 10.608 17.28 10.809 17.9925C9.99609 18.0344 9.18315 17.9105 8.41966 17.6283C7.65616 17.346 6.95808 16.9114 6.36788 16.3508C5.77769 15.7902 5.30774 15.1154 4.98662 14.3675C4.6655 13.6195 4.49994 12.814 4.5 12V6.477C4.5 6.213 4.713 6 4.977 6H10.5Z" fill="#1976D2" />
</svg>