<svg width="18" height="18" viewBox="0 0 18 18" fill="none" xmlns="http://www.w3.org/2000/svg">
  <g clip-path="url(#clip0_730_3453)">
    <path d="M9.621 4.50074C9.74075 4.1614 9.77737 3.79829 9.72778 3.44188C9.67819 3.08546 9.54384 2.74614 9.33599 2.45239C9.12815 2.15863 8.85289 1.91902 8.53329 1.75364C8.2137 1.58826 7.8591 1.50195 7.49925 1.50195C7.1394 1.50195 6.7848 1.58826 6.46521 1.75364C6.14561 1.91902 5.87035 2.15863 5.66251 2.45239C5.45466 2.74614 5.32031 3.08546 5.27072 3.44188C5.22113 3.79829 5.25775 4.1614 5.3775 4.50074C3.66375 4.50674 2.7495 4.56824 2.1585 5.15924C1.5675 5.75024 1.506 6.66449 1.5 8.37749C1.83928 8.25814 2.20222 8.22186 2.55841 8.27169C2.91459 8.32152 3.25365 8.45601 3.54714 8.66389C3.84064 8.87177 4.08002 9.14698 4.24523 9.46645C4.41044 9.78591 4.49666 10.1403 4.49666 10.5C4.49666 10.8596 4.41044 11.2141 4.24523 11.5335C4.08002 11.853 3.84064 12.1282 3.54714 12.3361C3.25365 12.544 2.91459 12.6785 2.55841 12.7283C2.20222 12.7781 1.83928 12.7418 1.5 12.6225C1.506 14.3355 1.5675 15.2497 2.1585 15.8407C2.7495 16.4317 3.66375 16.4932 5.37675 16.4992C5.2574 16.16 5.22112 15.797 5.27095 15.4408C5.32079 15.0846 5.45528 14.7456 5.66316 14.4521C5.87104 14.1586 6.14624 13.9192 6.46571 13.754C6.78518 13.5888 7.13959 13.5026 7.49925 13.5026C7.85891 13.5026 8.21332 13.5888 8.53279 13.754C8.85226 13.9192 9.12746 14.1586 9.33534 14.4521C9.54322 14.7456 9.67771 15.0846 9.72755 15.4408C9.77738 15.797 9.7411 16.16 9.62175 16.4992C11.3348 16.4932 12.249 16.4317 12.84 15.8407C13.431 15.2497 13.4925 14.3355 13.4985 12.6217C13.8378 12.7415 14.2009 12.7781 14.5574 12.7285C14.9138 12.6789 15.2531 12.5446 15.5468 12.3367C15.8406 12.1289 16.0802 11.8536 16.2456 11.534C16.411 11.2144 16.4973 10.8598 16.4973 10.5C16.4973 10.1401 16.411 9.78554 16.2456 9.46595C16.0802 9.14635 15.8406 8.87108 15.5468 8.66324C15.2531 8.4554 14.9138 8.32105 14.5574 8.27146C14.2009 8.22186 13.8378 8.25848 13.4985 8.37824C13.4925 6.66449 13.431 5.75024 12.84 5.15924C12.249 4.56749 11.3348 4.50674 9.621 4.50074Z" stroke="#1C1C1C" stroke-width="1.125" stroke-linecap="round" stroke-linejoin="round" />
  </g>
  <defs>
    <clipPath id="clip0_730_3453">
      <rect width="18" height="18" fill="white" />
    </clipPath>
  </defs>
</svg>