<svg width="20" height="20" viewBox="0 0 20 20" fill="none" xmlns="http://www.w3.org/2000/svg">
  <g clip-path="url(#clip0_707_3019)">
    <path d="M10 0C7.34844 0 4.80312 1.05422 2.92969 2.92891C1.05433 4.80435 0.000536638 7.34779 0 10C0 12.6511 1.05469 15.1964 2.92969 17.0711C4.80312 18.9458 7.34844 20 10 20C12.6516 20 15.1969 18.9458 17.0703 17.0711C18.9453 15.1964 20 12.6511 20 10C20 7.34891 18.9453 4.80359 17.0703 2.92891C15.1969 1.05422 12.6516 0 10 0Z" fill="url(#paint0_linear_707_3019)" />
    <path d="M4.52658 9.89453C7.4422 8.62453 9.38595 7.78724 10.3578 7.38266C13.136 6.2275 13.7125 6.02688 14.0891 6.02008C14.1719 6.01875 14.3563 6.03922 14.4766 6.13648C14.5766 6.21852 14.6047 6.32945 14.6188 6.40734C14.6313 6.48516 14.6485 6.6625 14.6344 6.80094C14.4844 8.38219 13.8328 12.2194 13.5016 13.9905C13.3625 14.7398 13.086 14.9911 12.8188 15.0156C12.2375 15.0691 11.7969 14.6319 11.2344 14.2633C10.3547 13.6862 9.85783 13.3272 9.00314 12.7642C8.01564 12.1136 8.65626 11.7559 9.21876 11.1716C9.36564 11.0186 11.925 8.69125 11.9735 8.48016C11.9797 8.45375 11.986 8.35531 11.9266 8.30344C11.8688 8.25141 11.7828 8.26922 11.7203 8.28328C11.6313 8.30328 10.2266 9.23266 7.50158 11.0713C7.10314 11.3453 6.7422 11.4789 6.4172 11.4719C6.06095 11.4642 5.37345 11.27 4.86251 11.1041C4.23751 10.9005 3.73908 10.7928 3.78283 10.447C3.8047 10.267 4.05314 10.0828 4.52658 9.89453Z" fill="white" />
  </g>
  <defs>
    <linearGradient id="paint0_linear_707_3019" x1="1000" y1="0" x2="1000" y2="2000" gradientUnits="userSpaceOnUse">
      <stop stop-color="#2AABEE" />
      <stop offset="1" stop-color="#229ED9" />
    </linearGradient>
    <clipPath id="clip0_707_3019">
      <rect width="20" height="20" fill="white" />
    </clipPath>
  </defs>
</svg>