<svg width="22" height="22" viewBox="0 0 22 22" fill="none" xmlns="http://www.w3.org/2000/svg">
  <path d="M19.5556 3.05566H2.44444C1.79614 3.05566 1.17438 3.3132 0.715961 3.77163C0.257539 4.23005 0 4.8518 0 5.50011L0 11.0001H22V5.50011C22 4.8518 21.7425 4.23005 21.284 3.77163C20.8256 3.3132 20.2039 3.05566 19.5556 3.05566Z" fill="#005BBB" />
  <path d="M22 16.5C22 17.1483 21.7425 17.7701 21.284 18.2285C20.8256 18.6869 20.2039 18.9444 19.5556 18.9444H2.44444C1.79614 18.9444 1.17438 18.6869 0.715961 18.2285C0.257539 17.7701 0 17.1483 0 16.5V11H22V16.5Z" fill="#FFD500" />
</svg>